<svg xmlns="http://www.w3.org/2000/svg" width="66" height="140" viewBox="0 0 66 140" fill="none">
    <g clip-path="url(#clip0_259_694)">
        <path d="M48.3506 13.7326C48.3506 13.7326 42.7041 24.8249 51.3552 32.0413C60.0063 39.2578 62.0451 44.0517 63.0831 49.8582C64.1211 55.6648 65.0105 83.0645 62.9094 129.555C62.9094 129.555 57.0367 138.906 34.7118 139.772C34.7118 139.772 10.7421 140.642 2.8924 130.29C2.8924 130.29 -1.97141 78.3202 1.91195 50.3155C1.91195 50.3155 4.00726 39.1417 13.9883 32.4683C13.9883 32.4683 25.0365 25.3068 17.1834 13.4617"
              fill="url(#paint0_linear_259_694)"/>
        <path d="M12.6104 123.65C12.6104 123.65 29.466 110.378 52.8697 122.542" stroke="#B0D3ED" stroke-width="1.88534"
              stroke-miterlimit="10" stroke-linecap="round"/>
        <path d="M9.32471 130.591C9.16411 130.504 5.35511 128.356 4.92055 121.962C4.69311 118.64 2.76641 88.4955 4.55066 53.2835C4.53235 52.4044 4.62861 42.0653 18.3838 32.4388C18.4241 32.409 22.5024 29.2436 21.8338 24.7068C21.7582 24.1954 22.1127 23.7207 22.6246 23.6452C23.1365 23.5741 23.6117 23.9239 23.6873 24.4353C24.51 30.0521 19.7236 33.7672 19.4906 33.9461C6.28112 43.1947 6.42243 53.1663 6.42448 53.263L6.42353 53.3025L6.42257 53.342C4.60831 89.0673 6.70134 120.516 6.78813 121.836C7.14763 127.152 10.1047 128.888 10.2131 128.952C33.6659 141.447 55.0079 128.863 55.2178 128.732L55.2936 128.69C58.7022 127.028 58.6111 122.435 58.6079 122.387L58.6086 122.356L58.6093 122.325C60.2431 70.7979 58.2543 51.578 58.2324 51.393L58.2336 51.3447C57.6852 41.6577 46.4356 33.8775 46.2972 33.7819C46.1072 33.6412 41.6367 30.2952 41.9857 24.4124C42.0158 23.8992 42.4609 23.4926 42.9744 23.5358C43.4882 23.5658 43.882 24.0102 43.852 24.5235C43.5633 29.3666 47.2467 32.1619 47.3763 32.2573C47.8695 32.5943 59.4826 40.616 60.0924 51.2183C60.1781 52.0375 62.0893 71.5543 60.4775 122.357C60.4867 122.885 60.49 128.201 56.1506 130.345C55.6107 130.666 50.2543 133.77 42.0047 135.402C39.2961 135.938 36.0893 136.344 32.5226 136.359C25.7496 136.392 17.691 135.042 9.32042 130.587L9.32471 130.591Z"
              fill="url(#paint1_linear_259_694)"/>
        <path d="M12.6023 78.0268C11.4148 78.0332 10.3579 77.1861 10.1409 75.9772C8.17186 65.0301 9.71486 57.0543 9.78007 56.722C10.0502 55.371 11.3642 54.4978 12.7121 54.7677C14.06 55.0375 14.9386 56.346 14.6686 57.6925C14.6437 57.8105 13.2565 65.1619 15.0434 75.0985C15.2876 76.4531 14.3857 77.7449 13.0297 77.9888C12.884 78.0161 12.743 78.0258 12.5979 78.0267L12.6023 78.0268Z"
              fill="url(#paint2_linear_259_694)"/>
        <path opacity="0.83" d="M14.9106 45.1419C14.9106 45.1419 13.4294 46.7363 13.3359 49.5067" stroke="white"
              stroke-width="5.03054" stroke-miterlimit="10" stroke-linecap="round"/>
        <path d="M45.2672 129.537C44.2556 129.543 43.2987 128.927 42.9185 127.921C42.4351 126.635 43.0855 125.197 44.3769 124.714C50.7628 122.316 49.7976 114.047 49.7534 113.694C49.584 112.332 50.5464 111.086 51.9052 110.908C53.2727 110.73 54.516 111.687 54.6942 113.045C55.2669 117.364 54.2187 126.336 46.1286 129.373C45.8446 129.481 45.5532 129.531 45.2673 129.533L45.2672 129.537Z"
              fill="url(#paint3_linear_259_694)"/>
        <path opacity="0.4"
              d="M7.58357 56.0106C7.58357 56.0106 7.602 55.9759 7.60692 55.954C8.68092 46.2799 12.1949 40.9921 17.4861 36.951C20.1967 34.8815 23.4727 31.433 24.522 28.0493C25.9958 23.2964 26.0987 18.4972 24.1755 13.4732L32.7399 13.5486C33.575 18.6561 33.8278 24.3822 32.7455 29.3115C32.004 32.6938 30.0495 36.4159 28.1176 38.4735C23.9061 42.9624 21.5972 48.0597 21.063 56.6882C21.0625 56.7101 21.0533 56.7275 21.0485 56.7449C21.0485 56.7449 19.5675 113.407 22.3311 138.59C18.1105 137.82 13.6955 136.545 10.127 134.455C5.51716 103.429 7.58796 56.0107 7.58796 56.0107L7.58357 56.0106Z"
              fill="url(#paint4_linear_259_694)"/>
        <path d="M33.6213 139.79C34.3118 139.785 34.7474 139.773 34.8575 139.767C51.2932 139.128 59.0386 133.978 62.1985 130.966C63.3149 129.899 63.9655 128.452 64.0342 126.885C66.0562 80.9421 65.1549 54.5788 64.1129 48.7546C63.005 42.5642 60.6808 37.5745 52.0642 30.3852C44.0984 23.7389 49.0789 13.6409 49.2914 13.2155L47.6232 12.3712C47.5632 12.4884 41.7475 24.2136 50.8641 31.8191C59.0842 38.6781 61.2137 43.1755 62.2712 49.0835C63.3753 55.2519 64.0695 83.4464 62.1629 126.805C62.1146 127.889 61.6684 128.884 60.9031 129.617C57.9366 132.449 50.5989 137.288 34.7839 137.903C34.577 137.911 13.6073 138.563 5.04411 130.255C4.31805 129.548 3.87021 128.61 3.78456 127.606C3.04766 118.987 -0.494398 74.7277 2.92558 49.6991C2.94184 49.5721 2.96679 49.4497 2.99174 49.3273C3.40071 47.5097 5.88296 38.1552 14.617 32.3127C14.8091 32.19 19.6041 29.0243 20.7881 23.3462C21.5494 19.6919 20.6345 15.8829 18.072 12.0164L16.5123 13.0462C18.7907 16.4797 19.6115 19.8164 18.9548 22.9636C17.9299 27.8855 13.6264 30.7248 13.5861 30.7546C4.24867 36.9998 1.60181 46.9785 1.16349 48.9185C1.12408 49.0932 1.09346 49.2682 1.06713 49.4477C-2.3751 74.669 1.18008 119.113 1.92942 127.764C2.05697 129.216 2.70138 130.572 3.74973 131.59C11.7282 139.344 28.8362 139.815 33.6213 139.79Z"
              fill="url(#paint5_linear_259_694)"/>
        <path d="M51.6405 4.5297C51.6405 4.5297 52.6503 6.41684 51.6717 10.3294C50.8243 13.7268 43.3896 16.2136 33.1379 16.2643C22.886 16.3193 15.5379 13.5891 14.5391 10.5249C13.6018 7.64222 14.5079 4.72513 14.5079 4.72513C14.5202 6.75946 22.841 8.3666 33.0928 8.31153C43.3447 8.25646 51.6485 6.56393 51.6405 4.5297Z"
              fill="#F7EBF4" stroke="#F4C1DB" stroke-width="1.88534" stroke-linecap="round" stroke-linejoin="round"/>
        <path opacity="0.4"
              d="M32.2788 7.34684C29.3106 7.34092 26.7065 7.19444 24.4868 6.9694C23.1565 11.6071 24.8363 15.9707 25.1064 16.6186C27.5463 17.0115 30.2502 17.2175 33.1089 17.2032C33.144 17.2041 33.1792 17.2049 33.2143 17.2058C32.8129 15.8034 31.7877 11.649 32.2832 7.34694L32.2788 7.34684Z"
              fill="url(#paint6_linear_259_694)"/>
        <path d="M51.5307 4.87822C51.5187 2.62975 43.2406 0.850623 33.0409 0.90443C22.8412 0.958238 14.5825 2.8246 14.5945 5.07307C14.6065 7.32154 22.8847 9.10067 33.0843 9.04686C43.284 8.99305 51.5427 7.12669 51.5307 4.87822Z"
              fill="#F9EFF3" stroke="#F4C1DB" stroke-width="2.22249" stroke-miterlimit="10"/>
    </g>
    <defs>
        <linearGradient id="paint0_linear_259_694" x1="31.9559" y1="14.909" x2="32.5013" y2="118.297"
                        gradientUnits="userSpaceOnUse">
            <stop stop-color="#F4E9F0"/>
            <stop offset="0.29" stop-color="#EEE7F0"/>
            <stop offset="0.66" stop-color="#DEE3F1"/>
            <stop offset="1" stop-color="#C9DFF2"/>
        </linearGradient>
        <linearGradient id="paint1_linear_259_694" x1="32.1644" y1="29.5087" x2="32.6033" y2="112.703"
                        gradientUnits="userSpaceOnUse">
            <stop stop-color="#F7DAED"/>
            <stop offset="0.21" stop-color="#F1D9ED"/>
            <stop offset="0.48" stop-color="#E1D7ED"/>
            <stop offset="0.79" stop-color="#C6D5ED"/>
            <stop offset="1" stop-color="#B0D3ED"/>
        </linearGradient>
        <linearGradient id="paint2_linear_259_694" x1="12.0356" y1="56.5335" x2="12.1552" y2="79.2129"
                        gradientUnits="userSpaceOnUse">
            <stop offset="0.33" stop-color="white"/>
            <stop offset="0.39" stop-color="white" stop-opacity="0.98"/>
            <stop offset="0.48" stop-color="white" stop-opacity="0.91"/>
            <stop offset="0.57" stop-color="white" stop-opacity="0.81"/>
            <stop offset="0.67" stop-color="white" stop-opacity="0.66"/>
            <stop offset="0.78" stop-color="white" stop-opacity="0.48"/>
            <stop offset="0.89" stop-color="white" stop-opacity="0.25"/>
            <stop offset="1" stop-color="white" stop-opacity="0"/>
        </linearGradient>
        <linearGradient id="paint3_linear_259_694" x1="48.8578" y1="132.72" x2="48.7451" y2="111.354"
                        gradientUnits="userSpaceOnUse">
            <stop offset="0.33" stop-color="white"/>
            <stop offset="0.39" stop-color="white" stop-opacity="0.98"/>
            <stop offset="0.48" stop-color="white" stop-opacity="0.91"/>
            <stop offset="0.57" stop-color="white" stop-opacity="0.81"/>
            <stop offset="0.67" stop-color="white" stop-opacity="0.66"/>
            <stop offset="0.78" stop-color="white" stop-opacity="0.48"/>
            <stop offset="0.89" stop-color="white" stop-opacity="0.25"/>
            <stop offset="1" stop-color="white" stop-opacity="0"/>
        </linearGradient>
        <linearGradient id="paint4_linear_259_694" x1="20.4124" y1="76.0404" x2="7.4922" y2="76.1093"
                        gradientUnits="userSpaceOnUse">
            <stop stop-color="white"/>
            <stop offset="0.16" stop-color="white" stop-opacity="0.81"/>
            <stop offset="0.47" stop-color="white" stop-opacity="0.47"/>
            <stop offset="0.72" stop-color="white" stop-opacity="0.22"/>
            <stop offset="0.91" stop-color="white" stop-opacity="0.06"/>
            <stop offset="1" stop-color="white" stop-opacity="0"/>
        </linearGradient>
        <linearGradient id="paint5_linear_259_694" x1="32.0728" y1="12.8447" x2="32.7474" y2="140.704"
                        gradientUnits="userSpaceOnUse">
            <stop stop-color="#F5CBE5"/>
            <stop offset="0.17" stop-color="#EFCAE5"/>
            <stop offset="0.4" stop-color="#DFC8E6"/>
            <stop offset="0.65" stop-color="#C4C4E8"/>
            <stop offset="0.92" stop-color="#A0BFEB"/>
            <stop offset="1" stop-color="#93BEED"/>
        </linearGradient>
        <linearGradient id="paint6_linear_259_694" x1="20.8512" y1="12.1318" x2="29.428" y2="12.086"
                        gradientUnits="userSpaceOnUse">
            <stop stop-color="white" stop-opacity="0.01"/>
            <stop offset="0.12" stop-color="white" stop-opacity="0.03"/>
            <stop offset="0.25" stop-color="white" stop-opacity="0.08"/>
            <stop offset="0.38" stop-color="white" stop-opacity="0.17"/>
            <stop offset="0.52" stop-color="white" stop-opacity="0.29"/>
            <stop offset="0.66" stop-color="white" stop-opacity="0.45"/>
            <stop offset="0.8" stop-color="white" stop-opacity="0.64"/>
            <stop offset="0.94" stop-color="white" stop-opacity="0.86"/>
            <stop offset="1" stop-color="white" stop-opacity="0.95"/>
        </linearGradient>
        <clipPath id="clip0_259_694">
            <rect width="140" height="66" fill="white" transform="translate(-2 138.959) rotate(-88.6139)"/>
        </clipPath>
    </defs>
</svg>
