<svg width="140" height="66" viewBox="0 0 140 66" fill="none" xmlns="http://www.w3.org/2000/svg">
    <g id="Layer_1" clip-path="url(#clip0_399_1745)">
        <path id="Vector"
              d="M13.7317 17.6492C13.7317 17.6492 24.8241 23.2957 32.0405 14.6446C39.2569 5.99344 44.0509 3.95467 49.8574 2.91664C55.6639 1.87861 83.0636 0.989267 129.554 3.09039C129.554 3.09039 138.906 8.96301 139.771 31.288C139.771 31.288 140.641 55.2577 130.29 63.1074C130.29 63.1074 78.3194 67.9712 50.3146 64.0878C50.3146 64.0878 39.1408 61.9925 32.4675 52.0115C32.4675 52.0115 25.3059 40.9632 13.4609 48.8163"
              fill="url(#paint0_linear_399_1745)"/>
        <path id="Vector_2" d="M123.65 53.3899C123.65 53.3899 110.378 36.5342 122.542 13.1306" stroke="#B0D3ED"
              stroke-width="1.88534" stroke-miterlimit="10" stroke-linecap="round"/>
        <path id="Vector_3"
              d="M130.592 56.6755C130.505 56.8361 128.356 60.6451 121.963 61.0797C118.64 61.3071 88.4961 63.2338 53.2841 61.4496C52.4051 61.4679 42.0659 61.3716 32.4394 47.6165C32.4096 47.5762 29.2442 43.4979 24.7074 44.1665C24.196 44.242 23.7213 43.8876 23.6458 43.3756C23.5747 42.8638 23.9245 42.3885 24.436 42.313C30.0528 41.4902 33.7678 46.2766 33.9467 46.5096C43.1954 59.7191 53.1669 59.5778 53.2636 59.5758L53.3031 59.5767L53.3426 59.5777C89.0679 61.3919 120.516 59.2989 121.837 59.2121C127.152 58.8526 128.889 55.8956 128.953 55.7872C141.448 32.3343 128.864 10.9923 128.733 10.7825L128.691 10.7067C127.029 7.29802 122.436 7.38917 122.387 7.39239L122.357 7.39165L122.326 7.3909C70.7985 5.75717 51.5786 7.74592 51.3936 7.76783L51.3453 7.76666C41.6583 8.31502 33.8782 19.5646 33.7826 19.703C33.6418 19.8931 30.2958 24.3635 24.413 24.0145C23.8998 23.9845 23.4932 23.5393 23.5364 23.0259C23.5664 22.5121 24.0108 22.1183 24.5241 22.1483C29.3672 22.4369 32.1625 18.7535 32.2579 18.6239C32.5949 18.1308 40.6167 6.51764 51.2189 5.90787C52.0382 5.82215 71.5549 3.91094 122.358 5.52275C122.885 5.51353 128.201 5.51022 130.346 9.84965C130.666 10.3895 133.77 15.746 135.402 23.9956C135.939 26.7042 136.344 29.911 136.359 33.4777C136.393 40.2506 135.043 48.3093 130.587 56.6798L130.592 56.6755Z"
              fill="url(#paint1_linear_399_1745)"/>
        <path id="Vector_4"
              d="M78.0262 53.398C78.0326 54.5855 77.1855 55.6423 75.9765 55.8593C65.0295 57.8284 57.0537 56.2854 56.7214 56.2202C55.3704 55.95 54.4972 54.636 54.767 53.2881C55.0369 51.9402 56.3454 51.0616 57.6919 51.3317C57.8099 51.3565 65.1613 52.7437 75.0979 50.9569C76.4525 50.7126 77.7443 51.6146 77.9882 52.9705C78.0155 53.1163 78.0252 53.2572 78.0261 53.4024L78.0262 53.398Z"
              fill="url(#paint2_linear_399_1745)"/>
        <path id="Vector_5" opacity="0.83" d="M45.141 51.0894C45.141 51.0894 46.7354 52.5706 49.5059 52.6641"
              stroke="white" stroke-width="5.03054" stroke-miterlimit="10" stroke-linecap="round"/>
        <path id="Vector_6"
              d="M129.538 20.7328C129.544 21.7444 128.928 22.7013 127.921 23.0815C126.635 23.5649 125.197 22.9145 124.714 21.6231C122.316 15.2372 114.047 16.2024 113.695 16.2466C112.333 16.416 111.087 15.4536 110.909 14.0948C110.731 12.7273 111.688 11.484 113.045 11.3058C117.364 10.7331 126.336 11.7813 129.374 19.8714C129.481 20.1554 129.531 20.4468 129.533 20.7327L129.538 20.7328Z"
              fill="url(#paint3_linear_399_1745)"/>
        <path id="Vector_7" opacity="0.4"
              d="M56.0106 58.4159C56.0106 58.4159 55.9759 58.3975 55.954 58.3926C46.2799 57.3186 40.9921 53.8046 36.951 48.5134C34.8815 45.8029 31.433 42.5269 28.0493 41.4775C23.2964 40.0037 18.4972 39.9008 13.4732 41.824L13.5486 33.2596C18.6561 32.4245 24.3822 32.1717 29.3115 33.254C32.6938 33.9955 36.4159 35.9501 38.4735 37.882C42.9624 42.0934 48.0597 44.4023 56.6882 44.9365C56.7101 44.937 56.7275 44.9462 56.7449 44.9511C56.7449 44.9511 113.407 46.432 138.59 43.6684C137.82 47.889 136.545 52.304 134.455 55.8725C103.429 60.4824 56.0107 58.4116 56.0107 58.4116L56.0106 58.4159Z"
              fill="url(#paint4_linear_399_1745)"/>
        <path id="Vector_8"
              d="M139.789 32.3785C139.784 31.688 139.773 31.2523 139.767 31.1422C139.128 14.7066 133.977 6.96116 130.965 3.80126C129.898 2.68487 128.451 2.03421 126.885 1.96552C80.9415 -0.0563957 54.5782 0.844829 48.754 1.88683C42.5636 2.99473 37.5738 5.31899 30.3846 13.9356C23.7383 21.9013 13.6403 16.9209 13.2149 16.7083L12.3706 18.3765C12.4878 18.4365 24.213 24.2523 31.8185 15.1356C38.6774 6.9156 43.1748 4.78609 49.0829 3.72854C55.2513 2.6245 83.4458 1.93029 126.804 3.8369C127.888 3.88511 128.883 4.33135 129.616 5.09665C132.448 8.06311 137.288 15.4009 137.902 31.2159C137.91 31.4227 138.563 52.3925 130.255 60.9556C129.547 61.6817 128.609 62.1295 127.606 62.2152C118.986 62.9521 74.7271 66.4942 49.6985 63.0742C49.5715 63.0579 49.4491 63.033 49.3267 63.008C47.5091 62.599 38.1546 60.1168 32.3121 51.3828C32.1894 51.1907 29.0237 46.3956 23.3456 45.2116C19.6913 44.4504 15.8823 45.3653 12.0158 47.9278L13.0456 49.4874C16.4791 47.209 19.8158 46.3883 22.963 47.0449C27.8849 48.0699 30.7242 52.3734 30.754 52.4137C36.9992 61.7511 46.9779 64.398 48.9178 64.8363C49.0926 64.8757 49.2676 64.9063 49.4471 64.9326C74.6684 68.3749 119.112 64.8197 127.763 64.0703C129.216 63.9428 130.571 63.2984 131.59 62.25C139.343 54.2715 139.814 37.1635 139.789 32.3785Z"
              fill="url(#paint5_linear_399_1745)"/>
        <path id="Vector_9"
              d="M4.53031 14.36C4.53031 14.36 6.41745 13.3502 10.3301 14.3288C13.7274 15.1762 16.2142 22.6109 16.2649 32.8626C16.3199 43.1145 13.5897 50.4626 10.5255 51.4614C7.64284 52.3987 4.72574 51.4926 4.72574 51.4926C6.76007 51.4802 8.36721 43.1595 8.31214 32.9077C8.25707 22.6558 6.56454 14.352 4.53031 14.36Z"
              fill="#F7EBF4" stroke="#F4C1DB" stroke-width="1.88534" stroke-linecap="round" stroke-linejoin="round"/>
        <path id="Vector_10" opacity="0.4"
              d="M7.34672 33.721C7.34079 36.6891 7.19432 39.2933 6.96927 41.513C11.607 42.8433 15.9705 41.1635 16.6185 40.8933C17.0114 38.4535 17.2174 35.7496 17.2031 32.8909C17.204 32.8557 17.2048 32.8206 17.2057 32.7854C15.8033 33.1868 11.6489 34.2121 7.34682 33.7166L7.34672 33.721Z"
              fill="url(#paint6_linear_399_1745)"/>
        <path id="Vector_11"
              d="M4.87846 14.4695C2.62999 14.4815 0.850866 22.7597 0.904674 32.9593C0.958482 43.159 2.82484 51.4177 5.07332 51.4057C7.32179 51.3938 9.10091 43.1156 9.0471 32.9159C8.9933 22.7163 7.12693 14.4575 4.87846 14.4695Z"
              fill="#F9EFF3" stroke="#F4C1DB" stroke-width="2.22249" stroke-miterlimit="10"/>
    </g>
    <defs>
        <linearGradient id="paint0_linear_399_1745" x1="14.9081" y1="34.0439" x2="118.296" y2="33.4985"
                        gradientUnits="userSpaceOnUse">
            <stop stop-color="#F4E9F0"/>
            <stop offset="0.29" stop-color="#EEE7F0"/>
            <stop offset="0.66" stop-color="#DEE3F1"/>
            <stop offset="1" stop-color="#C9DFF2"/>
        </linearGradient>
        <linearGradient id="paint1_linear_399_1745" x1="29.5093" y1="33.8359" x2="112.704" y2="33.397"
                        gradientUnits="userSpaceOnUse">
            <stop stop-color="#F7DAED"/>
            <stop offset="0.21" stop-color="#F1D9ED"/>
            <stop offset="0.48" stop-color="#E1D7ED"/>
            <stop offset="0.79" stop-color="#C6D5ED"/>
            <stop offset="1" stop-color="#B0D3ED"/>
        </linearGradient>
        <linearGradient id="paint2_linear_399_1745" x1="56.5329" y1="53.9647" x2="79.2123" y2="53.845"
                        gradientUnits="userSpaceOnUse">
            <stop offset="0.33" stop-color="white"/>
            <stop offset="0.39" stop-color="white" stop-opacity="0.98"/>
            <stop offset="0.48" stop-color="white" stop-opacity="0.91"/>
            <stop offset="0.57" stop-color="white" stop-opacity="0.81"/>
            <stop offset="0.67" stop-color="white" stop-opacity="0.66"/>
            <stop offset="0.78" stop-color="white" stop-opacity="0.48"/>
            <stop offset="0.89" stop-color="white" stop-opacity="0.25"/>
            <stop offset="1" stop-color="white" stop-opacity="0"/>
        </linearGradient>
        <linearGradient id="paint3_linear_399_1745" x1="132.72" y1="17.1422" x2="111.354" y2="17.2549"
                        gradientUnits="userSpaceOnUse">
            <stop offset="0.33" stop-color="white"/>
            <stop offset="0.39" stop-color="white" stop-opacity="0.98"/>
            <stop offset="0.48" stop-color="white" stop-opacity="0.91"/>
            <stop offset="0.57" stop-color="white" stop-opacity="0.81"/>
            <stop offset="0.67" stop-color="white" stop-opacity="0.66"/>
            <stop offset="0.78" stop-color="white" stop-opacity="0.48"/>
            <stop offset="0.89" stop-color="white" stop-opacity="0.25"/>
            <stop offset="1" stop-color="white" stop-opacity="0"/>
        </linearGradient>
        <linearGradient id="paint4_linear_399_1745" x1="76.0404" y1="45.5871" x2="76.1093" y2="58.5073"
                        gradientUnits="userSpaceOnUse">
            <stop stop-color="white"/>
            <stop offset="0.16" stop-color="white" stop-opacity="0.81"/>
            <stop offset="0.47" stop-color="white" stop-opacity="0.47"/>
            <stop offset="0.72" stop-color="white" stop-opacity="0.22"/>
            <stop offset="0.91" stop-color="white" stop-opacity="0.06"/>
            <stop offset="1" stop-color="white" stop-opacity="0"/>
        </linearGradient>
        <linearGradient id="paint5_linear_399_1745" x1="12.8441" y1="33.9269" x2="140.703" y2="33.2524"
                        gradientUnits="userSpaceOnUse">
            <stop stop-color="#F5CBE5"/>
            <stop offset="0.17" stop-color="#EFCAE5"/>
            <stop offset="0.4" stop-color="#DFC8E6"/>
            <stop offset="0.65" stop-color="#C4C4E8"/>
            <stop offset="0.92" stop-color="#A0BFEB"/>
            <stop offset="1" stop-color="#93BEED"/>
        </linearGradient>
        <linearGradient id="paint6_linear_399_1745" x1="12.1317" y1="45.1486" x2="12.0859" y2="36.5717"
                        gradientUnits="userSpaceOnUse">
            <stop stop-color="white" stop-opacity="0.01"/>
            <stop offset="0.12" stop-color="white" stop-opacity="0.03"/>
            <stop offset="0.25" stop-color="white" stop-opacity="0.08"/>
            <stop offset="0.38" stop-color="white" stop-opacity="0.17"/>
            <stop offset="0.52" stop-color="white" stop-opacity="0.29"/>
            <stop offset="0.66" stop-color="white" stop-opacity="0.45"/>
            <stop offset="0.8" stop-color="white" stop-opacity="0.64"/>
            <stop offset="0.94" stop-color="white" stop-opacity="0.86"/>
            <stop offset="1" stop-color="white" stop-opacity="0.95"/>
        </linearGradient>
        <clipPath id="clip0_399_1745">
            <rect width="140" height="66" fill="white" transform="translate(138.959 68) rotate(-178.614)"/>
        </clipPath>
    </defs>
</svg>
