<svg xmlns="http://www.w3.org/2000/svg" width="28" height="28" viewBox="0 0 28 28" fill="none">
    <path d="M9.33301 16.3333C9.33301 16.3333 11.083 18.6666 13.9997 18.6666C16.9163 18.6666 18.6663 16.3333 18.6663 16.3333M17.4997 10.4999H17.5113M9.33301 10.4999H11.6663M25.6663 13.9999C25.6663 20.4432 20.443 25.6666 13.9997 25.6666C7.55635 25.6666 2.33301 20.4432 2.33301 13.9999C2.33301 7.5566 7.55635 2.33325 13.9997 2.33325C20.443 2.33325 25.6663 7.5566 25.6663 13.9999ZM18.083 10.4999C18.083 10.8221 17.8218 11.0833 17.4997 11.0833C17.1775 11.0833 16.9163 10.8221 16.9163 10.4999C16.9163 10.1778 17.1775 9.91659 17.4997 9.91659C17.8218 9.91659 18.083 10.1778 18.083 10.4999Z"
          stroke="stroke" stroke-width="2" stroke-linecap="round" stroke-linejoin="round"/>
</svg>
