<svg width="70" height="90" viewBox="0 0 70 90" fill="none" xmlns="http://www.w3.org/2000/svg">
    <g id="Layer_1" clip-path="url(#clip0_399_3020)">
        <path id="Vector"
              d="M65.7331 38.7983C65.6225 38.5768 65.5327 38.3483 65.4083 38.1302C65.4083 38.1302 65.4083 38.1302 65.4083 38.1268C65.391 38.1406 65.3772 38.1545 65.3599 38.1718C64.8866 38.6218 64.3753 39.0268 63.8328 39.3834C63.6843 39.4803 63.5357 39.5738 63.3837 39.6638C63.2352 39.7538 63.0831 39.8403 62.9311 39.9234C62.7791 40.0065 62.6271 40.0861 62.4716 40.1588C62.3196 40.2349 62.1641 40.3042 62.0087 40.3734C61.8532 40.4426 61.6977 40.5049 61.5422 40.5673C61.3868 40.6296 61.2313 40.6884 61.0724 40.7438C60.9169 40.7992 60.758 40.8511 60.599 40.903C60.4401 40.9515 60.2812 41 60.1223 41.045C60.0532 41.0623 59.9875 41.083 59.9184 41.1004C59.8251 41.1246 59.7319 41.1454 59.6386 41.1661C59.4762 41.2007 59.3138 41.2319 59.1514 41.263C59.1342 41.2665 59.1169 41.27 59.0996 41.2734C58.9545 41.3046 58.8094 41.3288 58.6608 41.3565C58.4985 41.3877 58.3326 41.4154 58.1702 41.4396C58.0079 41.4638 57.842 41.4915 57.6762 41.5123C57.5104 41.5331 57.3445 41.5538 57.1787 41.5711C57.0129 41.5884 56.847 41.6023 56.6812 41.6161C56.5153 41.63 56.3461 41.6438 56.1802 41.6508C56.0144 41.6611 55.8451 41.6715 55.6758 41.6785C55.5065 41.6854 55.3372 41.6854 55.1714 41.6888C55.0021 41.6888 54.8328 41.6888 54.6635 41.6888C54.4942 41.6888 54.3249 41.6888 54.1522 41.6819C53.9829 41.6785 53.8101 41.6715 53.6409 41.6646C53.6339 41.6646 53.6236 41.6646 53.6167 41.6646C53.4543 41.6577 53.2919 41.6508 53.1261 41.6404C52.9533 41.6334 52.784 41.6231 52.6113 41.6127C52.4385 41.6023 52.2658 41.5919 52.0965 41.5781C51.9238 41.5642 51.751 41.5504 51.5783 41.5331C51.4055 41.5158 51.2328 41.5019 51.06 41.4846C50.8873 41.4673 50.7145 41.4465 50.5383 41.4292C50.3656 41.4084 50.1894 41.3877 50.0167 41.3634C49.8405 41.3392 49.6677 41.3184 49.495 41.2942C49.3188 41.27 49.146 41.2457 48.9698 41.218C48.7936 41.1904 48.6174 41.1627 48.4447 41.135C48.2685 41.1073 48.0923 41.0761 47.9195 41.0484C47.7433 41.0173 47.5671 40.9861 47.3909 40.955C47.2147 40.9238 47.0385 40.8892 46.8623 40.8546C46.6861 40.82 46.5099 40.7853 46.3337 40.7507C46.1575 40.7161 45.9779 40.6815 45.8017 40.6434C45.6255 40.6053 45.4458 40.5673 45.2696 40.5292C45.0934 40.4911 44.9137 40.453 44.7375 40.4115C44.5579 40.3734 44.3817 40.3319 44.2055 40.2903C44.0258 40.2488 43.8496 40.2072 43.67 40.1657C43.4903 40.1242 43.3141 40.0826 43.1345 40.0376C42.9548 39.9961 42.7786 39.9511 42.599 39.9095C42.4193 39.8645 42.2396 39.823 42.0634 39.778C41.8838 39.733 41.7041 39.688 41.5279 39.643C41.4139 39.6153 41.2999 39.5841 41.1824 39.5564C41.1168 39.5391 41.0546 39.5218 40.989 39.5045C40.8093 39.4561 40.6297 39.4076 40.45 39.3591C40.2703 39.3107 40.0907 39.2622 39.911 39.2137C39.7314 39.1653 39.5517 39.1134 39.3721 39.0614C39.1924 39.0095 39.0127 38.9576 38.8296 38.9057C38.65 38.8537 38.4703 38.8053 38.2872 38.7499C38.1076 38.698 37.9245 38.6426 37.7448 38.5906C37.5651 38.5387 37.382 38.4833 37.2024 38.4314C37.0227 38.376 36.8396 38.3241 36.66 38.2722C36.4768 38.2168 36.2972 38.1614 36.1175 38.106C35.9379 38.0506 35.7548 37.9952 35.5751 37.9398C35.3955 37.8845 35.2123 37.8291 35.0327 37.7737C34.8496 37.7183 34.6699 37.6594 34.4868 37.6041C34.3037 37.5487 34.124 37.4898 33.9409 37.4344C33.7578 37.3756 33.5782 37.3202 33.3951 37.2614C33.212 37.2025 33.0323 37.1437 32.8492 37.0883C32.6661 37.0294 32.4864 36.9706 32.3033 36.9117C32.1202 36.8529 31.9405 36.794 31.7574 36.7352C31.5743 36.6763 31.3947 36.6175 31.2116 36.5586C31.0284 36.4998 30.8488 36.4409 30.6657 36.3821C30.4826 36.3232 30.3029 36.2609 30.1198 36.2021C29.9367 36.1432 29.757 36.0809 29.5739 36.0221C29.4323 35.9771 29.2906 35.9286 29.149 35.8836C29.1075 35.8698 29.0661 35.8559 29.0246 35.8421C28.838 35.7798 28.6584 35.7209 28.4787 35.6621C28.2956 35.6032 28.1125 35.5444 27.9328 35.489C27.7497 35.4336 27.5701 35.3817 27.3904 35.3297C27.2108 35.2778 27.0311 35.2328 26.8515 35.1878C26.6753 35.1428 26.4956 35.1013 26.3159 35.0632C26.2918 35.0563 26.2676 35.0528 26.2434 35.0459C26.0914 35.0147 25.9394 34.987 25.7873 34.9593C25.6111 34.9282 25.4384 34.897 25.2587 34.8693C25.1516 34.852 25.0445 34.8347 24.9374 34.8209C24.8683 34.8105 24.8027 34.8036 24.7336 34.7932C24.5608 34.769 24.3846 34.7482 24.2119 34.724C24.0392 34.7032 23.8664 34.6859 23.6902 34.6686C23.5486 34.6547 23.4069 34.6374 23.2653 34.627C23.2342 34.627 23.2031 34.6236 23.172 34.6201C22.9992 34.6063 22.8299 34.5993 22.6572 34.5889C22.4879 34.5786 22.3152 34.5716 22.1424 34.5647C21.9731 34.5578 21.8004 34.5509 21.6311 34.5474C21.6103 34.5474 21.5896 34.5474 21.5723 34.5474C21.4238 34.5474 21.2718 34.5474 21.1232 34.5439C20.9539 34.5439 20.7846 34.5439 20.6153 34.5439C20.446 34.5439 20.2768 34.5509 20.1109 34.5543C19.9416 34.5613 19.7758 34.5647 19.6065 34.5751C19.4407 34.582 19.2714 34.5924 19.1055 34.6028C19.071 34.6028 19.0399 34.6063 19.0053 34.6097C18.8706 34.6201 18.7393 34.6305 18.6046 34.6409C18.4387 34.6547 18.2729 34.6651 18.1036 34.6824C17.9378 34.6997 17.7719 34.7205 17.6061 34.7378C17.4817 34.7516 17.3608 34.762 17.2364 34.7793C17.195 34.7863 17.1535 34.7932 17.1121 34.8001C16.9462 34.8243 16.7838 34.8486 16.6215 34.8763C16.4591 34.904 16.2932 34.9351 16.1309 34.9663C15.9685 34.9974 15.8061 35.0286 15.6437 35.0632C15.4813 35.0978 15.319 35.1324 15.16 35.174C14.9976 35.212 14.8387 35.2536 14.6763 35.2986C14.5623 35.3297 14.4483 35.3574 14.3343 35.3886C14.2894 35.4024 14.2445 35.4197 14.1961 35.4336C14.0372 35.4821 13.8783 35.5305 13.7193 35.5859C13.5604 35.6413 13.4049 35.7001 13.246 35.759C13.1527 35.7936 13.0594 35.8282 12.9662 35.8628C12.904 35.8905 12.8418 35.9182 12.7761 35.9459C12.6207 36.0152 12.4686 36.0844 12.3132 36.1571C12.1577 36.2298 12.0057 36.3025 11.8502 36.3752C11.7742 36.4098 11.6982 36.4479 11.6187 36.4825C11.5427 36.5206 11.4667 36.5621 11.3873 36.6036C11.2352 36.6833 11.0798 36.7629 10.9312 36.846C10.7792 36.929 10.6272 37.0156 10.4786 37.1056C10.3266 37.1956 10.178 37.2856 10.026 37.3756C9.87401 37.4691 9.72544 37.5625 9.57688 37.6595C9.42832 37.7564 9.27976 37.8568 9.1312 37.9572C8.98264 38.061 8.83753 38.1683 8.68897 38.2756C8.54041 38.3864 8.3953 38.4972 8.2502 38.6114C8.10509 38.7256 7.95998 38.8433 7.81833 38.9645C7.67323 39.0857 7.52812 39.2103 7.38992 39.3384C7.24482 39.4699 7.10662 39.6049 6.96842 39.7399C6.92351 39.7849 6.87514 39.8265 6.83368 39.8715C6.73694 39.9684 6.64366 40.0653 6.55038 40.1657C6.40873 40.3111 6.27053 40.4599 6.13579 40.6123C5.99759 40.768 5.8594 40.9238 5.72811 41.083C5.58991 41.2457 5.45517 41.4119 5.32388 41.5815C5.18914 41.7546 5.0544 41.9312 4.92657 42.1112C3.21639 44.4893 2.06936 47.2829 1.51657 50.2011C0.753034 54.0955 0.856681 58.2045 1.78951 62.0677C2.26283 63.9889 2.94345 65.879 3.93155 67.4714C4.05939 67.6652 4.1734 67.8729 4.31505 68.046L4.79874 68.7003C5.25824 69.3649 5.49663 70.1542 5.51045 70.9365C5.52772 71.7188 5.32043 72.515 4.88511 73.2039C4.33923 73.9828 4.02484 74.1732 3.67244 74.5782C2.30429 76.0321 0.949964 77.6141 0.272801 79.1891C0.113875 79.5768 0.0205923 79.9438 -0.00704704 80.2796C-0.0312314 80.4976 0.0413217 80.7815 0.144969 80.9304C0.248617 81.0827 0.348809 81.1381 0.559559 81.2004C0.621747 81.2073 0.680481 81.2177 0.739214 81.235C0.804858 81.2454 0.894685 81.2246 0.974148 81.2246C1.12271 81.235 1.31273 81.1934 1.50275 81.1484C1.84824 81.0654 2.21101 80.9338 2.58414 80.7746C2.63251 80.7538 2.67742 80.7365 2.72579 80.7157C2.78107 80.6915 2.8398 80.6569 2.89508 80.6326C3.24748 80.463 3.59988 80.2726 3.94537 80.0511C4.35996 79.8088 4.76764 79.5422 5.16496 79.2411C5.56918 78.9572 5.96995 78.6664 6.3569 78.3376C7.14808 77.7214 7.90471 77.0394 8.66133 76.3575C9.44905 75.6825 10.3473 74.914 11.2318 74.2805C11.3769 74.1836 11.5255 74.0866 11.6706 73.9932C11.8191 73.8962 11.9677 73.7993 12.1197 73.7058C12.2683 73.6124 12.4203 73.5189 12.5688 73.4289C12.7174 73.3389 12.8694 73.2524 13.0214 73.1658C13.1734 73.0793 13.322 72.9927 13.474 72.9097C13.626 72.8266 13.7781 72.7435 13.9301 72.6639C14.0821 72.5843 14.2341 72.5046 14.3896 72.4285C14.5416 72.3523 14.6936 72.2727 14.8491 72.1966C15.0011 72.1204 15.1566 72.0512 15.312 71.9785C15.4675 71.9058 15.6195 71.8365 15.775 71.7673C15.9305 71.6981 16.0825 71.6288 16.238 71.5596C16.3934 71.4938 16.5489 71.4281 16.7044 71.3623C16.8598 71.2965 17.0153 71.2342 17.1708 71.1719C17.3263 71.1096 17.4817 71.0473 17.6407 70.9884C17.7961 70.9296 17.955 70.8707 18.1105 70.8119C18.266 70.753 18.4249 70.6942 18.5838 70.6388C18.7428 70.5834 18.8982 70.528 19.0572 70.4761C19.2161 70.4207 19.3716 70.3688 19.5305 70.3169C19.6894 70.2649 19.8483 70.213 20.0073 70.1611C20.1662 70.1092 20.3251 70.0607 20.484 70.0122C20.643 69.9638 20.8019 69.9153 20.9608 69.8668C21.1198 69.8184 21.2787 69.7734 21.4411 69.7284C21.6 69.6834 21.7624 69.6384 21.9213 69.5934C22.0802 69.5484 22.2426 69.5034 22.4015 69.4618C22.5604 69.4203 22.7228 69.3787 22.8818 69.3337C22.9716 69.3095 23.058 69.2853 23.1478 69.2645C23.2203 69.2472 23.2929 69.2299 23.3654 69.2091C23.5278 69.1676 23.6868 69.1295 23.8491 69.088C24.0115 69.0499 24.1704 69.0118 24.3328 68.9737C24.4952 68.9357 24.6541 68.8976 24.8165 68.863C24.9789 68.8249 25.1413 68.7903 25.3037 68.7556C25.466 68.721 25.6284 68.6864 25.7908 68.6518C25.9532 68.6172 26.1156 68.5826 26.2779 68.5514C26.4403 68.5168 26.6027 68.4856 26.7651 68.4545C26.9275 68.4233 27.0898 68.3922 27.2522 68.361C27.4146 68.3299 27.577 68.2987 27.7428 68.271C27.9052 68.2399 28.071 68.2122 28.2334 68.1845C28.3958 68.1568 28.5616 68.1256 28.724 68.0979C28.8864 68.0702 29.0522 68.0425 29.2146 68.0149C29.377 67.9872 29.5428 67.9629 29.7052 67.9352C29.8676 67.9075 30.0334 67.8833 30.1958 67.8556C30.3616 67.8314 30.524 67.8072 30.6899 67.7795C30.8557 67.7518 31.0181 67.731 31.1839 67.7068C31.3498 67.6825 31.5121 67.6583 31.678 67.6341C31.8438 67.6098 32.0062 67.5891 32.172 67.5648C32.3379 67.5406 32.5002 67.5198 32.6661 67.4956C32.8319 67.4748 32.9943 67.4506 33.1601 67.4298C33.326 67.4091 33.4883 67.3848 33.6542 67.3641C33.82 67.3433 33.9824 67.3225 34.1482 67.3017C34.3141 67.281 34.4799 67.2602 34.6423 67.2394C34.8081 67.2187 34.974 67.1979 35.1363 67.1771C35.3022 67.1564 35.468 67.1356 35.6304 67.1148C35.6304 67.1148 35.6304 67.1148 35.6338 67.1148C35.7997 67.094 35.9621 67.0767 36.1244 67.056C36.2903 67.0352 36.4561 67.0179 36.6185 66.9971C36.7843 66.9763 36.9502 66.959 37.1125 66.9383C37.2784 66.9175 37.4442 66.8967 37.6066 66.8794C37.7724 66.8587 37.9383 66.8413 38.1041 66.824C38.2699 66.8067 38.4358 66.786 38.6016 66.7687C38.7675 66.7513 38.9333 66.7306 39.0991 66.7133C39.265 66.696 39.4308 66.6752 39.5966 66.6579C39.7625 66.6406 39.9283 66.6198 40.0941 66.6025C40.26 66.5852 40.4258 66.5644 40.5916 66.5471C40.7575 66.5298 40.9233 66.509 41.0892 66.4917C41.255 66.4744 41.4208 66.4536 41.5867 66.4363C41.7525 66.4156 41.9183 66.3983 42.0842 66.3775C42.25 66.3567 42.4158 66.3394 42.5782 66.3186C42.7441 66.2979 42.9099 66.2806 43.0757 66.2598C43.2416 66.239 43.4074 66.2217 43.5698 66.2009C43.5905 66.2009 43.6147 66.1975 43.6354 66.194C43.7771 66.1767 43.9222 66.1559 44.0638 66.1386C44.2297 66.1179 44.3921 66.0971 44.5579 66.0729C44.7237 66.0486 44.8896 66.0313 45.0519 66.0071C45.2178 65.9828 45.3802 65.9586 45.546 65.9378C45.7118 65.9136 45.8742 65.8928 46.04 65.8686C46.1333 65.8548 46.2301 65.8409 46.3233 65.8271C46.3924 65.8167 46.4615 65.8063 46.5341 65.7959C46.6999 65.7717 46.8623 65.7475 47.0281 65.7232C47.194 65.699 47.3564 65.6748 47.5222 65.6471C47.688 65.6228 47.8504 65.5986 48.0128 65.5709C48.0128 65.5709 48.0197 65.5709 48.0232 65.5709C48.037 65.5709 48.0508 65.564 48.0646 65.564C48.2132 65.5467 48.3583 65.5259 48.5069 65.5017C48.6727 65.4774 48.8351 65.4463 48.9975 65.4151C49.1598 65.384 49.3222 65.3494 49.4846 65.3113C49.647 65.2732 49.8059 65.2351 49.9683 65.1901C50.1272 65.1486 50.2896 65.1001 50.4485 65.0517C50.6074 65.0032 50.7664 64.9513 50.9253 64.8993C51.0842 64.844 51.2397 64.7886 51.3986 64.7297C51.5575 64.6709 51.713 64.6086 51.8685 64.5428C52.024 64.477 52.1794 64.4112 52.3349 64.342C52.4904 64.2728 52.6424 64.2001 52.7979 64.1274C52.9533 64.0547 53.1053 63.9751 53.2574 63.8989C53.4094 63.8193 53.5614 63.7397 53.7134 63.6566C53.8654 63.5735 54.0174 63.487 54.166 63.397C54.318 63.307 54.4666 63.217 54.6151 63.127C54.7637 63.0335 54.9157 62.9366 55.0643 62.8397C55.2128 62.7427 55.3614 62.6423 55.51 62.5419C55.6585 62.4381 55.8071 62.3377 55.9522 62.2304C56.1008 62.1231 56.2459 62.0158 56.391 61.905C56.5361 61.7942 56.6846 61.6835 56.8297 61.5692C56.9748 61.455 57.12 61.3373 57.2651 61.2196C57.4102 61.1019 57.5553 60.9807 57.6969 60.8596C57.842 60.7384 57.9837 60.6138 58.1253 60.4857C58.2704 60.3576 58.4121 60.233 58.5537 60.1015C58.5572 60.098 58.5606 60.0945 58.5641 60.0911C58.7023 59.963 58.8405 59.8315 58.9752 59.6999C59.1169 59.5649 59.2551 59.4264 59.3967 59.288C59.5384 59.146 59.6766 59.0076 59.8148 58.8622C59.953 58.7168 60.0946 58.5714 60.2294 58.426C60.3676 58.2772 60.5058 58.1249 60.6405 57.9725C60.7787 57.8168 60.9134 57.661 61.0482 57.5018C61.1864 57.3425 61.3211 57.1798 61.4524 57.0171C61.5872 56.851 61.7219 56.6848 61.8532 56.5152C61.9879 56.3421 62.1192 56.169 62.2505 55.9959C62.3852 55.8194 62.5165 55.6394 62.6444 55.4559C62.7757 55.269 62.9069 55.082 63.0348 54.8951C63.166 54.7013 63.2939 54.5039 63.4183 54.3101C63.5461 54.1093 63.6739 53.9051 63.7983 53.6974C63.9261 53.4862 64.0505 53.2716 64.1714 53.057C64.2958 52.8354 64.4202 52.6104 64.5377 52.3854C64.662 52.15 64.7795 51.9146 64.897 51.6758C65.0179 51.4265 65.1354 51.1773 65.2459 50.9246C65.3634 50.6615 65.4774 50.3949 65.5845 50.1249C65.5845 50.118 65.588 50.1145 65.5914 50.1076C65.7054 49.8272 65.8091 49.5468 65.9093 49.2595C66.4897 47.6014 66.8421 45.8636 66.887 44.1016C66.9008 43.07 66.7972 42.0385 66.5691 41.0277C66.3688 40.2592 66.0751 39.5288 65.7261 38.8156L65.7331 38.7983Z"
              fill="url(#paint0_linear_399_3020)"/>
        <path id="Vector_2"
              d="M36.7117 19.33C36.8879 19.3542 37.0606 19.3785 37.2368 19.4027C37.413 19.4269 37.5892 19.4546 37.762 19.4858C37.9382 19.5135 38.1144 19.5446 38.2906 19.5758C38.4668 19.6069 38.643 19.6415 38.8192 19.6727C38.9954 19.7073 39.175 19.7419 39.3512 19.78C39.5274 19.8181 39.7071 19.8562 39.8833 19.8942C39.9627 19.9116 40.0422 19.9289 40.1217 19.9462C40.1735 19.9566 40.2253 19.9669 40.2771 19.9808C40.3255 19.9912 40.3704 20.0016 40.4188 20.0119C40.4361 20.0154 40.4568 20.0189 40.4741 20.0258C40.5501 20.0431 40.6295 20.0569 40.7055 20.0777C40.7885 20.0985 40.8679 20.1193 40.9508 20.14C41.1305 20.185 41.3101 20.2266 41.4863 20.2716C41.666 20.3166 41.8457 20.365 42.0253 20.4135C42.205 20.462 42.3846 20.5104 42.5643 20.5589C42.7439 20.6073 42.9236 20.6593 43.1032 20.7112C43.2829 20.7631 43.466 20.815 43.6457 20.867C43.8253 20.9189 44.0084 20.9743 44.1881 21.0262C44.3712 21.0816 44.5509 21.137 44.7305 21.1924C44.9136 21.2478 45.0933 21.3031 45.2729 21.362C45.456 21.4174 45.6357 21.4762 45.8188 21.5316C46.0019 21.5905 46.1816 21.6459 46.3647 21.7047C46.5478 21.7635 46.7274 21.8224 46.9106 21.8812C47.0937 21.9401 47.2733 21.9989 47.4564 22.0578C47.5221 22.0786 47.5843 22.0993 47.6499 22.1201C47.7674 22.1582 47.8848 22.1963 48.0023 22.2343C48.1854 22.2932 48.3651 22.3555 48.5482 22.4109C48.7278 22.4697 48.911 22.5217 49.0906 22.577C49.2703 22.6324 49.4534 22.6844 49.633 22.7363C49.8127 22.7882 49.9923 22.8401 50.172 22.8886C50.3517 22.9371 50.5313 22.9821 50.711 23.0271C50.8906 23.0721 51.0703 23.1171 51.2465 23.1621C51.4261 23.2036 51.6023 23.2486 51.782 23.2867C51.9582 23.3248 52.1378 23.3628 52.314 23.4009C52.4902 23.439 52.6664 23.4736 52.8461 23.5082C53.0223 23.5428 53.1985 23.574 53.3747 23.6017C53.5509 23.6329 53.7236 23.6605 53.8998 23.6882C54.076 23.7159 54.2488 23.7436 54.425 23.7679C54.4423 23.7679 54.4595 23.7748 54.4803 23.7748C54.6357 23.7955 54.7912 23.8094 54.9467 23.8302C55.1194 23.8509 55.2922 23.8717 55.4684 23.889C55.6411 23.9063 55.8139 23.9202 55.9866 23.934C56.1594 23.9479 56.3321 23.9617 56.5049 23.9721C56.6776 23.9825 56.8469 23.9929 57.0196 23.9998C57.1889 24.0067 57.3617 24.0136 57.531 24.0206C57.7003 24.0275 57.873 24.0309 58.0423 24.0344C58.2116 24.0344 58.3809 24.0344 58.5502 24.0379C58.7195 24.0379 58.8887 24.0379 59.058 24.0379C59.2273 24.0379 59.3966 24.0275 59.5625 24.024C59.7317 24.0206 59.8976 24.0171 60.0669 24.0067C60.2327 23.9998 60.402 23.9859 60.5678 23.9756C61.0308 23.9479 61.4938 23.9098 61.9533 23.8613C62.4715 23.8059 62.9897 23.7402 63.508 23.6571C64.04 23.5705 64.5721 23.4736 65.1007 23.3594C65.7226 23.2244 66.3375 23.0617 66.9525 22.8851C67.6262 22.1997 68.2101 21.4312 68.6489 20.5623C70.0032 18.0146 70.2554 14.9441 69.7855 11.9532C69.6473 11.0843 69.4573 10.2189 69.2051 9.37769C69.2051 9.37769 69.1395 9.45384 69.0186 9.56808C68.4278 10.2189 67.7644 10.8039 67.0423 11.3093C64.5859 13.0159 61.4696 13.864 58.4051 13.7463C58.3843 13.7463 58.3671 13.7463 58.3463 13.7463C58.1943 13.7359 58.0423 13.7255 57.8903 13.7117C57.7175 13.6979 57.5448 13.684 57.372 13.6702C57.1993 13.6563 57.0265 13.6425 56.8538 13.6217C56.84 13.6217 56.8296 13.6217 56.8158 13.6182L56.3287 13.5317L55.8001 13.4382L55.306 13.3482C55.306 13.3482 55.2818 13.3413 55.2715 13.3413C55.0918 13.3067 54.9121 13.2617 54.7359 13.2132C54.5563 13.1648 54.3766 13.1128 54.197 13.0609C54.0726 13.0263 53.9517 12.9917 53.8273 12.9571L53.658 12.9086L53.119 12.7597L52.5801 12.6109L52.4142 12.5659C52.2899 12.5278 52.1655 12.4932 52.0377 12.4586C51.858 12.4101 51.6818 12.3651 51.5021 12.3236C51.3259 12.2855 51.1463 12.2474 50.9701 12.2128C50.7939 12.1782 50.6177 12.1436 50.4415 12.1124C50.3689 12.0986 50.2964 12.0847 50.2273 12.0743C50.1236 12.057 50.02 12.0363 49.9129 12.0189C49.8403 12.0051 49.7643 11.9912 49.6918 11.9774L49.3912 11.9566L49.2357 11.9462L48.8764 11.9186L48.3616 11.8805H48.3167C48.3167 11.8805 48.2891 11.8805 48.2787 11.877C48.1371 11.8666 47.9954 11.8666 47.8538 11.8701C47.6845 11.8701 47.5186 11.8805 47.3493 11.8874C47.2146 11.8943 47.0833 11.8978 46.9486 11.8978C46.914 11.8978 46.8795 11.9047 46.8449 11.9082C46.6791 11.9186 46.5132 11.9324 46.344 11.9497C46.1781 11.967 46.0123 11.9878 45.8499 12.012C45.6841 12.0362 45.5217 12.0605 45.3593 12.0916C45.1969 12.1193 45.0311 12.1505 44.8722 12.1851C44.7098 12.2197 44.5474 12.2578 44.3885 12.2993C44.2261 12.3409 44.0672 12.3859 43.9082 12.4309C43.7493 12.4759 43.5904 12.5243 43.4315 12.5797C43.2725 12.6317 43.1136 12.6836 42.9581 12.7424C42.7992 12.8013 42.6437 12.8636 42.4883 12.9294C42.3328 12.9951 42.1773 13.0644 42.0219 13.1336C41.8664 13.2028 41.7109 13.279 41.5589 13.3551C41.4034 13.4313 41.2514 13.5109 41.0994 13.594C40.9474 13.6771 40.7954 13.7671 40.6468 13.8571C40.4948 13.9471 40.3462 14.044 40.1977 14.1409C40.0491 14.2413 39.9005 14.3417 39.7554 14.4456C39.6069 14.5529 39.4618 14.6602 39.3167 14.7744C39.1716 14.8887 39.0264 15.0064 38.8848 15.1275C38.7397 15.2521 38.598 15.3802 38.4564 15.5118C38.3113 15.6468 38.1731 15.7852 38.0349 15.9272C37.8932 16.0726 37.755 16.2249 37.6203 16.3772C37.5823 16.4187 37.5443 16.4603 37.5063 16.5053C37.4061 16.6195 37.3094 16.7407 37.2161 16.8584C37.0779 17.028 36.9466 17.2011 36.8188 17.3776C36.684 17.5611 36.5527 17.748 36.4284 17.9384C36.2971 18.1357 36.1692 18.34 36.0483 18.5407C36.0207 18.5857 35.993 18.6273 35.9654 18.6723C35.8617 18.8488 35.7719 19.0323 35.6855 19.2158C35.8583 19.2331 36.031 19.2504 36.2003 19.2677C36.3731 19.2885 36.5493 19.3092 36.722 19.33H36.7117Z"
              fill="url(#paint1_linear_399_3020)"/>
        <path id="Vector_3"
              d="M68.4735 22.4005C68.4735 22.4005 68.4735 22.4005 68.4735 22.397C68.4735 22.397 68.4182 22.4212 68.3353 22.4593C68.3215 22.4662 68.2938 22.4766 68.2766 22.4836C67.7341 22.7466 67.1779 22.9855 66.6147 23.207C66.0516 23.4286 65.4781 23.6294 64.8976 23.8128C64.3449 23.9859 63.7886 24.1417 63.2255 24.2802C62.6934 24.4082 62.1544 24.5294 61.612 24.6263C61.3218 24.6783 61.0281 24.7267 60.7345 24.7717C60.5686 24.796 60.4063 24.8167 60.2404 24.8375C60.0746 24.8583 59.9122 24.8825 59.7464 24.8998C59.5805 24.9171 59.4147 24.9344 59.2489 24.9517C59.083 24.969 58.9172 24.9829 58.7514 24.9967C58.5855 25.0106 58.4162 25.021 58.2504 25.0313C58.0846 25.0417 57.9153 25.0521 57.7494 25.059C57.5801 25.066 57.4143 25.0763 57.245 25.0798C57.0757 25.0867 56.9064 25.0867 56.7406 25.0902C56.5713 25.0902 56.402 25.0971 56.2327 25.0971C56.0634 25.0971 55.8941 25.0937 55.7214 25.0902C55.5521 25.0902 55.3828 25.0867 55.2101 25.0798C55.0373 25.0729 54.868 25.066 54.6953 25.0556C54.5813 25.0487 54.4673 25.0487 54.3532 25.0417C54.298 25.0417 54.2392 25.0348 54.184 25.0313C54.0112 25.021 53.8385 25.0071 53.6692 24.9933C53.4964 24.9794 53.3237 24.9621 53.1509 24.9448C52.9782 24.9275 52.8054 24.9067 52.6292 24.886C52.4565 24.8652 52.2803 24.841 52.1076 24.8167C51.9314 24.7925 51.7586 24.7648 51.5824 24.7371C51.4062 24.7094 51.23 24.6783 51.0538 24.6471C50.8776 24.6159 50.7014 24.5848 50.5252 24.5502C50.349 24.5156 50.1693 24.4809 49.9931 24.4429C49.8135 24.4048 49.6373 24.3667 49.4611 24.3286C49.2814 24.2905 49.1052 24.249 48.9256 24.2075C48.7459 24.1659 48.5663 24.1209 48.3901 24.0794C48.2104 24.0344 48.0308 23.9894 47.8546 23.9444C47.6749 23.8994 47.4952 23.8509 47.3156 23.8059C47.2672 23.7921 47.2154 23.7782 47.167 23.7678C47.0357 23.7332 46.9079 23.7021 46.7766 23.6674C46.597 23.6224 46.4173 23.574 46.2377 23.529C46.058 23.484 45.8783 23.4355 45.6987 23.3905C45.519 23.3455 45.3394 23.297 45.1597 23.252C44.9801 23.207 44.8004 23.1586 44.6208 23.1136C44.4411 23.0686 44.2614 23.0236 44.0852 22.9786C43.9056 22.9336 43.7259 22.8886 43.5497 22.8436C43.3701 22.7986 43.1939 22.757 43.0142 22.712C42.8346 22.667 42.6584 22.6255 42.4787 22.5839C42.299 22.5424 42.1229 22.5009 41.9432 22.4593C41.767 22.4178 41.5873 22.3797 41.4111 22.3416C41.2349 22.3035 41.0553 22.2655 40.8791 22.2274C40.7029 22.1893 40.5232 22.1547 40.347 22.1166C40.3159 22.1097 40.2848 22.1028 40.2537 22.0958C40.1086 22.0682 39.9635 22.0439 39.8184 22.0162C39.6422 21.9851 39.466 21.9505 39.2898 21.9193C39.1136 21.8881 38.9374 21.8605 38.7647 21.8328C38.661 21.8155 38.5608 21.7981 38.4572 21.7843H38.4503C38.3812 21.7739 38.3121 21.767 38.243 21.7566C38.0668 21.7324 37.894 21.7081 37.7178 21.6839C37.5451 21.6631 37.3689 21.6424 37.1961 21.6216C37.0234 21.6008 36.8507 21.5835 36.6745 21.5662C36.5017 21.5489 36.329 21.5385 36.1562 21.5247C35.9835 21.5108 35.8107 21.5004 35.6414 21.4901C35.4687 21.4797 35.2994 21.4727 35.1266 21.4658C35.0783 21.4658 35.0299 21.4589 34.9815 21.4589C34.8606 21.4554 34.7397 21.4554 34.6188 21.452C34.4495 21.452 34.2802 21.4485 34.1109 21.452C33.9416 21.452 33.7723 21.4554 33.603 21.4624C33.5961 21.4624 33.5858 21.4624 33.5788 21.4624C33.5167 21.4624 33.4579 21.4624 33.3957 21.4624C33.2955 21.4658 33.1988 21.4693 33.0986 21.4762C32.9328 21.4866 32.7669 21.5004 32.5977 21.5177C32.4698 21.5316 32.3385 21.542 32.2107 21.5558C32.1727 21.5593 32.1382 21.5662 32.1001 21.5697C31.9343 21.587 31.7685 21.6078 31.6061 21.6285C31.4403 21.6493 31.2779 21.677 31.1155 21.7047C30.9531 21.7324 30.7873 21.7601 30.6249 21.7947C30.4625 21.8258 30.3001 21.8605 30.1378 21.8951C29.9754 21.9331 29.8164 21.9747 29.6541 22.0162C29.4917 22.0578 29.3328 22.1062 29.1738 22.1547C29.0149 22.2032 28.856 22.2551 28.6971 22.307C28.5381 22.3624 28.3792 22.4143 28.2237 22.4766C28.0648 22.5389 27.9128 22.6047 27.7573 22.6705C27.6018 22.7397 27.4464 22.809 27.2944 22.8851C27.1976 22.9301 27.1009 22.9751 27.0041 23.0236C26.9489 23.0547 26.8901 23.0859 26.8349 23.1136C26.6828 23.1932 26.5308 23.2728 26.3788 23.3559C26.2268 23.439 26.0748 23.5255 25.9262 23.6224C25.8157 23.6951 25.7051 23.7713 25.6015 23.8578C25.5634 23.889 25.5254 23.9167 25.484 23.9444C25.3389 24.0517 25.1903 24.1521 25.0418 24.2525C24.8932 24.3563 24.7446 24.4602 24.603 24.5779C24.4993 24.6644 24.3991 24.7544 24.3059 24.8548C24.2644 24.8929 24.2195 24.931 24.178 24.9725C24.0364 25.104 23.8947 25.2321 23.7531 25.3671C23.6114 25.5021 23.4698 25.6371 23.3316 25.7756C23.1899 25.9175 23.0483 26.0595 22.9135 26.2083C22.7719 26.3606 22.6371 26.5199 22.5058 26.6791C22.3677 26.8522 22.2329 27.0253 22.1085 27.2053C22.1016 27.2122 22.0947 27.2226 22.0913 27.2295C21.9634 27.413 21.8425 27.5999 21.725 27.7903C21.5938 28.0084 21.4694 28.2299 21.3588 28.4549C21.231 28.7111 21.1135 28.9707 21.0168 29.2373C20.92 29.4934 20.8371 29.7531 20.7749 30.0162C20.7542 30.0888 20.7369 30.165 20.7197 30.2377C20.6229 30.6531 20.5746 31.072 20.5573 31.4874C20.5538 31.6189 20.5538 31.747 20.5573 31.8785C20.5607 31.9893 20.5676 32.1001 20.578 32.2109C20.578 32.2524 20.5849 32.2974 20.5918 32.3424C20.616 32.3562 20.6402 32.3701 20.6644 32.3839C20.7093 32.4116 20.7577 32.4359 20.8026 32.4636C20.9304 32.4636 21.0617 32.4705 21.193 32.4739C21.3623 32.4774 21.535 32.4843 21.7043 32.4912C21.8771 32.4982 22.0463 32.5051 22.2191 32.5155C22.3918 32.5259 22.5646 32.5362 22.7339 32.5501C22.9066 32.5639 23.0794 32.5813 23.2521 32.5951C23.3178 32.602 23.3834 32.6055 23.4525 32.6124C23.5596 32.6228 23.6667 32.6366 23.7738 32.6505C23.9465 32.6713 24.1227 32.692 24.2955 32.7163C24.4717 32.7405 24.6444 32.7647 24.8206 32.7924C24.9968 32.8201 25.173 32.8478 25.3458 32.879C25.522 32.9101 25.6982 32.9413 25.8744 32.9759C26.0506 33.0105 26.2302 33.0486 26.4064 33.0901C26.4928 33.1109 26.5792 33.1282 26.6621 33.149C26.7554 33.1697 26.8487 33.194 26.942 33.2182C27.1216 33.2632 27.3013 33.3117 27.4809 33.3636C27.664 33.4155 27.8437 33.4744 28.0233 33.5332C28.2065 33.5921 28.3896 33.6544 28.5692 33.7167C28.7558 33.7825 28.9389 33.8482 29.1186 33.914C29.3051 33.9832 29.4917 34.0525 29.6713 34.1182C29.6955 34.1286 29.7197 34.1355 29.7439 34.1459C29.9028 34.2048 30.0617 34.2636 30.2241 34.3225C30.4072 34.3917 30.5903 34.4575 30.7769 34.5267C30.96 34.5959 31.1431 34.6617 31.3297 34.7309C31.5128 34.8002 31.6959 34.866 31.879 34.9317C32.0621 34.9975 32.2453 35.0667 32.4284 35.1325C32.6115 35.1983 32.7946 35.2675 32.9777 35.3333C33.1608 35.3991 33.3439 35.4648 33.527 35.5306C33.7101 35.5964 33.8932 35.6621 34.0764 35.7279C34.2595 35.7937 34.4426 35.8595 34.6257 35.9218C34.8088 35.9875 34.9919 36.0498 35.175 36.1156C35.3581 36.1814 35.5412 36.2437 35.7244 36.3095C35.9075 36.3718 36.0906 36.4376 36.2737 36.4999C36.4568 36.5622 36.6399 36.6279 36.823 36.6903C37.0061 36.7526 37.1892 36.8149 37.3723 36.8772C37.5555 36.9395 37.7386 37.0018 37.9182 37.0607C38.0979 37.1195 38.2844 37.1853 38.4641 37.2441C38.6472 37.303 38.8269 37.3653 39.01 37.4241C39.1931 37.483 39.3727 37.5418 39.5558 37.6041C39.739 37.663 39.9186 37.7218 40.1017 37.7807C40.2814 37.8395 40.4645 37.8949 40.6476 37.9538C40.8307 38.0126 41.0104 38.068 41.1935 38.1268C41.3109 38.1649 41.4284 38.1995 41.5424 38.2376C41.6081 38.2584 41.6703 38.2757 41.7359 38.2965C41.9156 38.3519 42.0987 38.4072 42.2783 38.4626C42.458 38.518 42.6411 38.5734 42.8207 38.6253C43.0004 38.6807 43.1835 38.7326 43.3632 38.788C43.5428 38.84 43.7225 38.8953 43.9056 38.9473C44.0852 38.9992 44.2649 39.0511 44.448 39.103C44.6277 39.155 44.8073 39.2034 44.987 39.2519C45.1666 39.3004 45.3463 39.3488 45.5259 39.3973C45.7056 39.4457 45.8853 39.4942 46.0649 39.5392C46.2446 39.5842 46.4242 39.6327 46.6039 39.6777C46.7835 39.7227 46.9597 39.7677 47.1394 39.8092C47.319 39.8542 47.4952 39.8958 47.6749 39.9373C47.8511 39.9788 48.0308 40.0204 48.2104 40.0585C48.3866 40.0965 48.5663 40.1346 48.7425 40.1727C48.9187 40.2108 49.0983 40.2454 49.2745 40.2835C49.4507 40.3181 49.6269 40.3527 49.8066 40.3873C49.9828 40.4219 50.159 40.4496 50.3352 40.4808C50.5114 40.5119 50.6876 40.5396 50.8638 40.5708C51.04 40.5985 51.2127 40.6262 51.3889 40.6539C51.5617 40.6816 51.7379 40.7023 51.9141 40.7266C52.0868 40.7508 52.263 40.7716 52.4358 40.7923C52.6085 40.8131 52.7847 40.8339 52.9575 40.8546C53.1302 40.872 53.303 40.8893 53.4757 40.9066C53.5344 40.9135 53.5966 40.9204 53.6554 40.9239C53.7659 40.9343 53.8799 40.9412 53.9939 40.9516C54.1667 40.9654 54.3394 40.9827 54.5122 40.9931C54.6849 41.0035 54.8542 41.0139 55.027 41.0208C55.1962 41.0277 55.369 41.0347 55.5383 41.0381C55.7076 41.0416 55.8769 41.045 56.0496 41.045C56.2189 41.045 56.3882 41.045 56.5575 41.0381C56.7268 41.0347 56.8926 41.0277 57.0619 41.0208C57.2312 41.0139 57.397 41.007 57.5629 40.9931C57.7287 40.9793 57.8945 40.9654 58.0604 40.9481C58.2262 40.9308 58.392 40.9135 58.5579 40.8927C58.7237 40.872 58.8895 40.8512 59.0519 40.827C59.2143 40.8027 59.3801 40.7681 59.5425 40.7369C59.6358 40.7196 59.7256 40.7058 59.8189 40.6885C59.8915 40.6746 59.9606 40.6573 60.0331 40.6435C60.1955 40.6089 60.3579 40.5742 60.5168 40.5327C60.6792 40.4912 60.8381 40.4496 60.997 40.4046C61.004 40.4046 61.0109 40.4012 61.0178 40.3977C61.1663 40.3215 61.308 40.2419 61.4531 40.1623C61.6051 40.0792 61.7571 39.9892 61.9057 39.9027C62.0577 39.8127 62.2063 39.7192 62.3548 39.6258C62.5068 39.5288 62.6554 39.4319 62.8005 39.3315C62.9491 39.2277 63.0976 39.1238 63.2427 39.0165C63.3913 38.9057 63.5364 38.795 63.6781 38.6807C64.0857 38.3519 64.4796 38.0022 64.8493 37.6214C66.708 35.7556 67.9725 33.2944 68.4873 30.6254C68.933 28.2749 68.8915 25.8275 68.5944 23.4009C68.5529 23.0686 68.5253 22.7328 68.4735 22.397V22.4005Z"
              fill="url(#paint2_linear_399_3020)"/>
        <path id="Vector_4"
              d="M52.9706 10.8282L53.2297 10.9217L53.779 11.119L54.3283 11.3163L54.3594 11.3267C54.5322 11.3855 54.7049 11.4513 54.8811 11.5171C55.0642 11.5863 55.2473 11.6521 55.4305 11.7109C55.5168 11.7386 55.6067 11.7663 55.693 11.7905L55.9694 11.8632L56.5084 12.0017L57.0474 12.1402H57.0612L57.576 12.2267L58.1011 12.3133L58.4501 12.3721C61.4144 12.7771 64.5652 12.2198 67.2566 10.6932C67.4328 10.2016 67.6228 9.71354 67.7921 9.22198C68.3242 7.64 68.8182 6.04763 69.1845 4.46565C69.3641 3.67639 69.5161 2.88367 69.5921 2.12556C69.6682 1.38822 69.6509 0.598962 69.5127 0.218178C69.4263 0.0243245 69.4574 0.0831729 69.4229 0.0485562C69.371 0.0104778 69.1223 -0.0241389 68.8217 0.0174012C68.2136 0.0900963 67.4674 0.356645 66.7557 0.668195C65.3115 1.31207 63.8812 2.16364 62.4819 3.06021C60.5956 4.25103 58.761 5.55261 56.9506 6.89228C56.8055 6.99959 56.657 7.11037 56.5118 7.21768C56.3667 7.32845 56.2182 7.43576 56.0731 7.54654C55.928 7.65731 55.7794 7.76808 55.6343 7.8754C55.4892 7.98617 55.3406 8.09694 55.1955 8.20425C55.0504 8.31503 54.9053 8.4258 54.7568 8.53657C54.6082 8.64735 54.4631 8.75812 54.318 8.8689C54.3007 8.88274 54.2834 8.89313 54.2696 8.90697C54.1418 9.00736 54.0105 9.10775 53.8827 9.20814C53.7376 9.32237 53.5924 9.43315 53.4473 9.54738C53.3022 9.66162 53.1571 9.77239 53.012 9.88663C52.8669 10.0009 52.7218 10.1151 52.5767 10.2293C52.4385 10.3366 52.3003 10.4474 52.1621 10.5547C52.3349 10.6101 52.5111 10.6655 52.6838 10.7244C52.7805 10.7555 52.8807 10.7901 52.974 10.8247L52.9706 10.8282Z"
              fill="url(#paint3_linear_399_3020)"/>
        <path id="Vector_5"
              d="M43.992 68.1257C43.8262 68.1499 43.6638 68.1741 43.498 68.1984C43.3322 68.2226 43.1698 68.2468 43.0039 68.2711C42.8381 68.2953 42.6757 68.3195 42.5099 68.3438C42.3441 68.368 42.1817 68.3888 42.0158 68.413C41.85 68.4372 41.6876 68.4615 41.5218 68.4822C41.3559 68.5065 41.1936 68.5272 41.0277 68.5515C40.8619 68.5757 40.6995 68.5965 40.5337 68.6207C40.3678 68.6449 40.2055 68.6657 40.0396 68.6899C39.8738 68.7142 39.7114 68.7349 39.5456 68.7592C39.3797 68.7834 39.2174 68.8042 39.0515 68.8284C38.8857 68.8526 38.7233 68.8734 38.5575 68.8976C38.3916 68.9219 38.2292 68.9426 38.0634 68.9669C37.8976 68.9911 37.7352 69.0153 37.5694 69.0361C37.4035 69.0603 37.2411 69.0811 37.0753 69.1053C36.9095 69.1296 36.7471 69.1538 36.5813 69.178C36.4154 69.2023 36.253 69.2265 36.0872 69.2507C36.0354 69.2577 35.9801 69.268 35.9283 69.275C35.8177 69.2923 35.7072 69.3096 35.5966 69.3269C35.4308 69.3511 35.2684 69.3754 35.1026 69.403C34.9367 69.4307 34.7743 69.4515 34.6085 69.4792C34.4427 69.5069 34.2803 69.5311 34.1179 69.5554C33.9521 69.5796 33.7897 69.6073 33.6273 69.635C33.4649 69.6627 33.2991 69.6869 33.1367 69.7146C32.9743 69.7423 32.8085 69.7665 32.6461 69.7942C32.4837 69.8219 32.3179 69.8496 32.1555 69.8773C31.9931 69.905 31.8273 69.9327 31.6649 69.9604C31.5025 69.9881 31.3367 70.0158 31.1743 70.0434C31.0119 70.0711 30.8496 70.1023 30.6837 70.13C30.5213 70.1577 30.3555 70.1888 30.1931 70.2165C30.0307 70.2442 29.8649 70.2754 29.7025 70.3065C29.5401 70.3377 29.3778 70.3688 29.2154 70.4C29.053 70.4312 28.8906 70.4623 28.7282 70.4935C28.5659 70.5246 28.4035 70.5558 28.2411 70.5904C28.0787 70.625 27.9163 70.6596 27.754 70.6942C27.5916 70.7289 27.4292 70.7635 27.2668 70.7981C27.1044 70.8327 26.942 70.8639 26.7797 70.9019C26.6173 70.9366 26.4584 70.9781 26.296 71.0127C26.1336 71.0508 25.9712 71.0889 25.8123 71.127C25.6499 71.165 25.4875 71.1997 25.3286 71.2412C25.1662 71.2793 25.0073 71.3243 24.8449 71.3623C24.6825 71.4039 24.5236 71.4454 24.3612 71.487C24.2023 71.5285 24.0399 71.5666 23.8775 71.6116C23.843 71.622 23.805 71.6289 23.767 71.6393C23.6426 71.6739 23.5182 71.7085 23.3939 71.7431C23.2349 71.7881 23.0725 71.8331 22.9136 71.8781C22.7547 71.9231 22.5958 71.9716 22.4334 72.0201C22.2745 72.0685 22.1155 72.117 21.9566 72.1655C21.7977 72.2139 21.6388 72.2624 21.4798 72.3143C21.3209 72.3662 21.162 72.4182 21.0031 72.4701C20.8441 72.522 20.6852 72.5774 20.5297 72.6293C20.3708 72.6847 20.2119 72.7366 20.0564 72.7955C19.8975 72.8509 19.742 72.9097 19.5831 72.9686C19.4242 73.0274 19.2687 73.0863 19.1132 73.1451C18.9577 73.204 18.7988 73.2663 18.6433 73.3286C18.4879 73.3909 18.3324 73.4567 18.1769 73.519C18.0215 73.5847 17.866 73.6505 17.7105 73.7163C17.555 73.7821 17.3996 73.8513 17.2441 73.9205C17.0886 73.9898 16.9366 74.0625 16.7811 74.1351C16.6257 74.2078 16.4737 74.284 16.3216 74.3567C16.1662 74.4329 16.0142 74.509 15.8621 74.5852C15.7101 74.6648 15.5547 74.7444 15.4061 74.824C15.2541 74.9071 15.1021 74.9902 14.95 75.0733C14.798 75.1598 14.646 75.2429 14.4974 75.3329C14.3454 75.4229 14.1969 75.5094 14.0449 75.6029C13.8928 75.6964 13.7443 75.7898 13.5957 75.8868C13.4472 75.9837 13.2986 76.0806 13.15 76.181C13.0187 76.2675 12.8909 76.3541 12.7631 76.4441C12.7424 76.4579 12.7251 76.4718 12.7078 76.4822C12.5523 76.586 12.4107 76.6968 12.269 76.8145C12.0514 76.9945 11.8441 77.1849 11.623 77.3614C11.2429 77.6903 10.8871 77.9464 10.4794 78.3307C9.68821 79.0542 8.89358 79.7742 8.04022 80.4492C7.62908 80.7989 7.18685 81.1243 6.73771 81.4427C6.30239 81.7751 5.83944 82.0831 5.35229 82.3705C4.79605 82.7201 4.19835 83.042 3.54883 83.319C3.69739 83.7482 3.86323 84.174 4.0567 84.5825C5.06553 86.6145 6.73426 88.2276 8.77611 89.0376C9.03178 89.138 9.27016 89.273 9.53274 89.3527L10.3377 89.5534C10.8698 89.6954 11.3984 89.8407 11.965 89.8615C12.5212 89.9065 13.0706 89.9896 13.6268 90.0034L15.0537 89.9515L15.3128 89.9411C15.3923 89.9377 15.4752 89.9307 15.5547 89.9238C15.7205 89.9134 15.8898 89.9031 16.0556 89.8892C16.2215 89.8754 16.3873 89.8581 16.5531 89.8407C16.719 89.8234 16.8848 89.8096 17.0506 89.7888C17.2165 89.7681 17.3788 89.7438 17.5447 89.7196C17.7105 89.6954 17.8729 89.6711 18.0353 89.6434C18.1977 89.6157 18.3635 89.588 18.5259 89.5569C18.6883 89.5257 18.8506 89.4946 19.013 89.46C19.1754 89.4253 19.3378 89.3942 19.5002 89.3561C19.6625 89.318 19.8215 89.2765 19.9839 89.2384C20.1462 89.1969 20.3052 89.1588 20.4675 89.1138C20.6265 89.0723 20.7888 89.0273 20.9478 88.9788C21.1067 88.9338 21.2656 88.8853 21.4245 88.8369C21.5835 88.7884 21.7424 88.7399 21.9013 88.688C21.9082 88.688 21.9186 88.6845 21.9255 88.6811C22.0775 88.6326 22.2261 88.5772 22.3747 88.5253C22.5336 88.4699 22.689 88.4145 22.848 88.3557C23.0069 88.2968 23.1624 88.238 23.3178 88.1757C23.4733 88.1134 23.6322 88.0511 23.7877 87.9888C23.9432 87.9264 24.0987 87.8607 24.2541 87.7949C24.4096 87.7291 24.5651 87.6564 24.7171 87.5872C24.8726 87.518 25.028 87.4487 25.18 87.376C25.3355 87.3033 25.4875 87.2307 25.643 87.1545C25.7985 87.0783 25.9505 87.0022 26.1025 86.926C26.2545 86.8464 26.41 86.7702 26.562 86.6906C26.714 86.611 26.866 86.5245 27.0181 86.4414C27.1701 86.3583 27.3221 86.2752 27.4741 86.1887C27.6261 86.1021 27.7781 86.0156 27.9267 85.9256C28.0787 85.8356 28.2273 85.7456 28.3758 85.6521C28.5244 85.5587 28.6764 85.4687 28.825 85.3752C28.9735 85.2817 29.1221 85.1813 29.2707 85.0844C29.4192 84.9875 29.5678 84.8871 29.7163 84.7867C29.8649 84.6863 30.0135 84.5859 30.162 84.4855C30.3106 84.3817 30.4557 84.2778 30.6043 84.1705C30.7528 84.0632 30.8979 83.9594 31.043 83.8486C31.1881 83.7413 31.3367 83.6305 31.4818 83.5197C31.6269 83.409 31.772 83.2947 31.9171 83.1805C32.0622 83.0663 32.2073 82.952 32.3524 82.8343C32.4975 82.7166 32.6427 82.5989 32.7843 82.4778C32.9294 82.3566 33.0711 82.2355 33.2162 82.1143C33.3233 82.0208 33.4338 81.9308 33.5409 81.8374C33.5755 81.8062 33.6135 81.7751 33.648 81.7439C33.7931 81.6193 33.9348 81.4947 34.0764 81.3666C34.2181 81.2385 34.3632 81.1104 34.5049 80.9823C34.6465 80.8543 34.7882 80.7227 34.9298 80.5912C35.0715 80.4596 35.2131 80.3246 35.3548 80.1931C35.4964 80.0581 35.6381 79.9196 35.7763 79.7846C35.9179 79.6461 36.0561 79.5077 36.1978 79.3692C36.3394 79.2307 36.4776 79.0888 36.6158 78.9469C36.7575 78.8049 36.8957 78.6596 37.0338 78.5142C37.172 78.3688 37.3102 78.2199 37.4484 78.0745C37.5866 77.9257 37.7248 77.7768 37.863 77.628C38.0012 77.4757 38.1394 77.3233 38.2742 77.171C38.4124 77.0153 38.5471 76.8595 38.6853 76.7037C38.8235 76.5479 38.9582 76.3887 39.093 76.2295C39.2277 76.0702 39.3659 75.9075 39.5007 75.7448C39.6354 75.5821 39.7701 75.416 39.9049 75.2498C40.0396 75.0836 40.1744 74.914 40.3057 74.7479C40.4404 74.5782 40.5751 74.4086 40.7064 74.2355C40.8412 74.0625 40.9725 73.8894 41.1037 73.7128C41.2385 73.5363 41.3663 73.3563 41.4976 73.1797C41.6289 72.9997 41.7602 72.8163 41.8915 72.6362C42.0227 72.4528 42.154 72.2658 42.2819 72.0824C42.389 71.9266 42.4995 71.7708 42.6032 71.6151C42.6239 71.5839 42.6481 71.5493 42.6688 71.5181C42.8001 71.3277 42.9279 71.1373 43.0558 70.9469C43.1871 70.7531 43.3114 70.5558 43.4393 70.3619C43.5671 70.1646 43.6949 69.9638 43.8193 69.7631C43.9471 69.5588 44.075 69.3546 44.1993 69.1503C44.2823 69.0153 44.3652 68.8803 44.4446 68.7453C44.4896 68.6692 44.531 68.593 44.5725 68.5169C44.6692 68.3438 44.7625 68.1707 44.8592 67.9941C44.7314 68.0149 44.6036 68.0322 44.4757 68.053C44.3134 68.0772 44.1475 68.1049 43.9851 68.1291L43.992 68.1257Z"
              fill="url(#paint4_linear_399_3020)"/>
    </g>
    <defs>
        <linearGradient id="paint0_linear_399_3020" x1="33.4382" y1="34.5439" x2="33.4382" y2="81.2379"
                        gradientUnits="userSpaceOnUse">
            <stop stop-color="#A8B6E7"/>
            <stop offset="0.552083" stop-color="#D1A2C4" stop-opacity="0.447917"/>
            <stop offset="1" stop-color="#CDCBF0" stop-opacity="0"/>
        </linearGradient>
        <linearGradient id="paint1_linear_399_3020" x1="52.8444" y1="9.37769" x2="52.8444" y2="24.0379"
                        gradientUnits="userSpaceOnUse">
            <stop stop-color="#A8B6E7"/>
            <stop offset="0.552083" stop-color="#D1A2C4" stop-opacity="0.447917"/>
            <stop offset="1" stop-color="#CDCBF0" stop-opacity="0"/>
        </linearGradient>
        <linearGradient id="paint2_linear_399_3020" x1="44.6873" y1="21.4504" x2="44.6873" y2="41.045"
                        gradientUnits="userSpaceOnUse">
            <stop stop-color="#A8B6E7"/>
            <stop offset="0.552083" stop-color="#D1A2C4" stop-opacity="0.447917"/>
            <stop offset="1" stop-color="#CDCBF0" stop-opacity="0"/>
        </linearGradient>
        <linearGradient id="paint3_linear_399_3020" x1="60.8995" y1="-0.00146484" x2="60.8995" y2="12.4999"
                        gradientUnits="userSpaceOnUse">
            <stop stop-color="#A8B6E7"/>
            <stop offset="0.552083" stop-color="#D1A2C4" stop-opacity="0.447917"/>
            <stop offset="1" stop-color="#CDCBF0" stop-opacity="0"/>
        </linearGradient>
        <linearGradient id="paint4_linear_399_3020" x1="24.204" y1="67.9941" x2="24.204" y2="90.0034"
                        gradientUnits="userSpaceOnUse">
            <stop stop-color="#A8B6E7"/>
            <stop offset="0.552083" stop-color="#D1A2C4" stop-opacity="0.447917"/>
            <stop offset="1" stop-color="#CDCBF0" stop-opacity="0"/>
        </linearGradient>
        <clipPath id="clip0_399_3020">
            <rect width="70" height="90" fill="white"/>
        </clipPath>
    </defs>
</svg>
