<svg width="74" height="61" viewBox="0 0 74 61" fill="none" xmlns="http://www.w3.org/2000/svg">
<path d="M61.2025 26.5274C61.2025 26.5274 55.1639 30.4099 57.3681 36.5179C59.571 42.6281 59.1901 45.6085 58.0167 48.8012C56.8432 51.9938 49.3099 65.8982 34.7308 88.4392C34.7308 88.4392 29.0876 91.3885 17.7269 85.3268C17.7269 85.3268 5.54689 78.789 4.65615 71.3536C4.65615 71.3536 17.3642 44.0582 27.4496 31.2411C27.4496 31.2411 31.7433 26.2869 38.6513 25.8639C38.6513 25.8639 46.2327 25.5109 45.7727 17.3294" fill="url(#paint0_linear_134_180)"/>
<path d="M50.8306 46.5984L48.0096 48.48L37.0423 40.232L38.5316 36.3909C38.6967 35.5121 42.3444 37.2349 42.3444 37.2349C51.4544 41.6521 50.8294 46.6006 50.8294 46.6006L50.8306 46.5984Z" fill="#E9E0D0"/>
<path fill-rule="evenodd" clip-rule="evenodd" d="M42.229 37.4784L42.2279 37.4779L42.2205 37.4744L42.1908 37.4606C42.1647 37.4485 42.1261 37.4307 42.0768 37.4084C41.9781 37.3636 41.8367 37.3005 41.6664 37.2275C41.3252 37.0811 40.8707 36.896 40.413 36.7385C39.9507 36.5795 39.5032 36.455 39.17 36.4204C39.0004 36.4028 38.8885 36.4118 38.8259 36.4318C38.8107 36.4367 38.8017 36.4412 38.797 36.4441C38.7939 36.4592 38.7896 36.4741 38.784 36.4885L37.3686 40.1391L48.0198 48.1495L50.569 46.4492C50.5694 46.4289 50.5696 46.406 50.5695 46.3807C50.5689 46.2494 50.5587 46.0525 50.519 45.8003C50.4399 45.2964 50.2429 44.5698 49.7675 43.7041C48.8179 41.9747 46.7449 39.6683 42.229 37.4784ZM51.1013 46.6013C51.1023 46.5904 51.1033 46.5769 51.1043 46.5609C51.107 46.5178 51.1095 46.4563 51.1091 46.378C51.1084 46.2214 51.0962 45.9973 51.0521 45.7165C50.9638 45.1545 50.7476 44.3679 50.2405 43.4444C49.2252 41.5953 47.0561 39.2192 42.463 36.9922L42.4605 36.991L42.3453 37.2349C42.4605 36.991 42.4606 36.991 42.4605 36.991L42.4575 36.9896L42.4492 36.9857L42.4178 36.971C42.3904 36.9584 42.3505 36.94 42.2997 36.9169C42.1982 36.8709 42.0534 36.8063 41.8791 36.7315C41.5313 36.5823 41.0635 36.3917 40.5886 36.2283C40.1183 36.0665 39.6229 35.925 39.2257 35.8837C39.0301 35.8634 38.83 35.864 38.6614 35.9179C38.4858 35.9741 38.3246 36.0983 38.2733 36.3131L36.7916 40.1345C36.7479 40.2471 36.7845 40.3751 36.881 40.4477L47.8483 48.6957C47.9398 48.7645 48.0649 48.768 48.1602 48.7045L50.9588 46.8378C51.0015 46.8147 51.0382 46.78 51.0639 46.7355L51.0652 46.7333C51.089 46.692 51.1009 46.6465 51.1013 46.6013Z" fill="#D8C6A9"/>
<path d="M50.8321 46.5981L17.6026 74.6038C14.7373 73.0051 13.4954 69.7197 13.4954 69.7197C15.5436 67.5908 20.4058 63.8103 20.4058 63.8103C27.0785 59.2145 31.7987 49.1036 31.7987 49.1036C35.9461 39.6653 38.5364 36.3897 38.5364 36.3897C38.4798 36.6905 38.8347 37.302 39.8916 38.3949L38.7744 40.3299L40.4631 39.1227C40.4631 39.1227 42.772 41.7457 47.3681 44.177C47.3681 44.177 50.7845 45.9154 48.0128 43.0602C45.2411 40.2051 41.8626 38.8571 41.8626 38.8571L41.3813 40.0302" fill="#E9E0D0"/>
<path fill-rule="evenodd" clip-rule="evenodd" d="M38.6484 36.1441C38.7614 36.1956 38.8247 36.3175 38.8017 36.4396C38.7997 36.45 38.7967 36.493 38.8298 36.5851C38.862 36.6751 38.9223 36.7944 39.0224 36.9476C39.2226 37.2539 39.5621 37.6659 40.0856 38.2072C40.1694 38.2938 40.1856 38.4254 40.1254 38.5297L39.6311 39.3858L40.3063 38.9031C40.4189 38.8226 40.5741 38.8404 40.6656 38.9442L40.6667 38.9454L40.671 38.9502L40.6897 38.971C40.7067 38.9896 40.7327 39.0179 40.7677 39.0549C40.8376 39.1291 40.9434 39.2387 41.0851 39.3782C41.1438 39.436 41.2088 39.4991 41.2798 39.5668L41.6131 38.7546C41.6692 38.6177 41.8252 38.5516 41.9627 38.6064L41.8627 38.857C41.9627 38.6064 41.9626 38.6064 41.9627 38.6064L41.9637 38.6068L41.966 38.6077L41.9742 38.6111L42.0049 38.6237C42.0315 38.6348 42.0705 38.6512 42.1207 38.673C42.2211 38.7166 42.3667 38.7816 42.5496 38.8685C42.9155 39.0423 43.4312 39.3035 44.0342 39.6548C45.2391 40.3566 46.7984 41.4217 48.2065 42.8722C48.557 43.2332 48.8148 43.5269 48.9957 43.7645C49.1721 43.9962 49.2914 44.195 49.3405 44.3637C49.3656 44.4499 49.3793 44.5509 49.3526 44.6527C49.3233 44.7644 49.2528 44.8492 49.1622 44.9017C49.0798 44.9494 48.991 44.9651 48.9177 44.9694C48.8422 44.9739 48.764 44.9674 48.6891 44.9559C48.3983 44.9114 48.0301 44.7706 47.7527 44.652C47.61 44.591 47.4839 44.5327 47.3935 44.4895C47.3482 44.468 47.3117 44.4501 47.2863 44.4376L47.2569 44.4229L47.2489 44.4189L47.2468 44.4178L47.2459 44.4174C47.2459 44.4174 47.2458 44.4173 47.3682 44.1769L47.2459 44.4174L47.242 44.4154C44.9251 43.1898 43.1834 41.9152 42.0194 40.9453C41.4374 40.4603 40.9996 40.0514 40.7064 39.7626C40.5909 39.6489 40.4978 39.5537 40.4272 39.48L38.9314 40.5493C38.8281 40.6232 38.6872 40.615 38.5932 40.5297C38.4991 40.4443 38.4773 40.3049 38.5408 40.195L39.5568 38.4351C39.0991 37.9518 38.7774 37.5591 38.5707 37.2428C38.5156 37.1585 38.4676 37.078 38.4268 37.001C38.3853 37.0609 38.3398 37.1272 38.2904 37.2001C37.9863 37.6495 37.5361 38.3487 36.956 39.3432C35.7957 41.3321 34.1158 44.5012 32.0458 49.212L32.0433 49.2176L31.7988 49.1035C32.0433 49.2176 32.0434 49.2175 32.0433 49.2176L32.0422 49.2198L32.0395 49.2257L32.0288 49.2482C32.0195 49.2679 32.0056 49.2971 31.9872 49.3352C31.9505 49.4114 31.8961 49.5233 31.8245 49.6671C31.6813 49.9548 31.4696 50.3701 31.1948 50.8826C30.6453 51.9074 29.8429 53.3216 28.8309 54.8803C26.8121 57.9898 23.9431 61.6994 20.5655 64.0279L20.5578 64.0339L20.5169 64.0658C20.481 64.0938 20.4279 64.1353 20.3596 64.189C20.2231 64.2962 20.0255 64.4519 19.7821 64.6454C19.2951 65.0324 18.6246 65.5704 17.8902 66.1748C16.4758 67.339 14.8362 68.7399 13.8124 69.7808C13.8503 69.8689 13.905 69.9913 13.9772 70.1403C14.1343 70.465 14.3735 70.9152 14.7004 71.4143C15.3301 72.3762 16.2759 73.5053 17.5734 74.2755L50.6583 46.3917C50.7722 46.2957 50.9424 46.3102 51.0385 46.4242C51.1345 46.5381 51.12 46.7083 51.006 46.8043L17.7766 74.81C17.6908 74.8823 17.5692 74.8939 17.4713 74.8393C15.9865 74.0109 14.9307 72.7512 14.2489 71.7099C13.9071 71.1878 13.6567 70.7168 13.4915 70.3755C13.4088 70.2047 13.3473 70.0661 13.3062 69.9695C13.2856 69.9212 13.2702 69.8833 13.2597 69.8572L13.2477 69.8269L13.2445 69.8186L13.2436 69.8162L13.2432 69.8152C13.2431 69.8151 13.2431 69.815 13.4955 69.7196L13.2432 69.8152C13.2063 69.7177 13.2288 69.6076 13.3011 69.5325C14.3374 68.4553 16.0764 66.9689 17.5473 65.7582C18.2846 65.1514 18.9576 64.6113 19.4463 64.2229C19.6907 64.0287 19.8891 63.8724 20.0264 63.7646C20.0951 63.7106 20.1485 63.6689 20.1847 63.6405L20.2394 63.5979L20.2403 63.5972C20.2444 63.594 20.2486 63.5909 20.2529 63.588C23.5452 61.3204 26.3702 57.6795 28.3783 54.5865C29.3804 53.043 30.1752 51.6423 30.7192 50.6276C30.9912 50.1204 31.2004 49.7099 31.3414 49.4267C31.4119 49.285 31.4653 49.1752 31.5011 49.1011C31.5189 49.064 31.5323 49.0358 31.5412 49.0171L31.5512 48.996L31.5531 48.9919C33.6299 44.2661 35.3184 41.0793 36.4899 39.0713C37.0758 38.067 37.5324 37.3575 37.8436 36.8977C37.9992 36.6678 38.1184 36.5003 38.1993 36.3896C38.2398 36.3343 38.2706 36.2931 38.2916 36.2655L38.3158 36.234L38.3222 36.2257L38.324 36.2234L38.3248 36.2224C38.3249 36.2224 38.3249 36.2223 38.5365 36.3896L38.3248 36.2224C38.4018 36.1251 38.5355 36.0926 38.6484 36.1441ZM47.4924 43.9373L47.4989 43.9407L47.5254 43.9538C47.5488 43.9654 47.583 43.9821 47.6257 44.0025C47.7113 44.0433 47.8304 44.0984 47.9647 44.1558C48.2412 44.274 48.5539 44.3893 48.7708 44.4225C48.7757 44.4233 48.7805 44.424 48.7852 44.4246C48.7466 44.3479 48.6788 44.239 48.5663 44.0913C48.4035 43.8774 48.1618 43.6009 47.8193 43.2481C46.4558 41.8434 44.94 40.8069 43.7626 40.121C43.1745 39.7784 42.6724 39.5242 42.3182 39.3559C42.1965 39.2982 42.0924 39.2506 42.0082 39.2131L41.7026 39.958C41.8963 40.1321 42.117 40.3242 42.3649 40.5307C43.504 41.4799 45.2142 42.732 47.4924 43.9373Z" fill="#D8C6A9"/>
<path d="M50.8311 46.5982C48.4186 50.8629 41.3069 55.1905 41.3069 55.1905C30.4537 62.8166 25.0767 77.9717 25.0767 77.9717C20.1965 80.0657 16.8505 75.2057 16.8505 75.2057C21.4867 71.7306 25.7145 64.1495 25.7145 64.1495C30.7062 55.0729 36.2012 49.5632 36.2012 49.5632C40.6235 45.5667 42.196 42.3061 42.196 42.3061C42.196 42.3061 44.1484 44.4016 46.9301 45.7092L44.7225 48.5651L48.342 46.4863C48.342 46.4863 50.1112 46.9432 50.8324 46.596L50.8311 46.5982Z" fill="#E9E0D0"/>
<path fill-rule="evenodd" clip-rule="evenodd" d="M51.0304 46.4128C51.1109 46.4995 51.1254 46.6287 51.0662 46.7312L51.0656 46.7323C49.8308 48.9144 47.4124 51.0897 45.33 52.7069C44.2842 53.5192 43.3145 54.1971 42.6063 54.672C42.252 54.9095 41.963 55.0964 41.7622 55.2241C41.6618 55.288 41.5834 55.337 41.53 55.3702L41.4689 55.408L41.4552 55.4164C36.0791 59.1964 32.0477 64.8496 29.3565 69.5747C28.0116 71.9358 27.0045 74.0598 26.3338 75.593C25.9985 76.3594 25.7474 76.978 25.5803 77.4043C25.4968 77.6175 25.4343 77.7826 25.3927 77.8941C25.372 77.9498 25.3565 77.9922 25.3462 78.0204L25.3347 78.0521L25.332 78.0599L25.3313 78.0617C25.3062 78.1326 25.2524 78.1903 25.1833 78.2199C22.6349 79.3134 20.4817 78.5856 18.9852 77.5995C18.2389 77.1076 17.6517 76.5496 17.2514 76.1155C17.051 75.8981 16.8966 75.7109 16.7917 75.5772C16.7393 75.5103 16.6991 75.4568 16.6718 75.4195C16.6581 75.4008 16.6477 75.3862 16.6404 75.376L16.632 75.364L16.6296 75.3606L16.6289 75.3596C16.6288 75.3594 16.6285 75.359 16.8507 75.206L16.6289 75.3596C16.5468 75.2403 16.573 75.0769 16.6889 74.9901C18.9717 73.279 21.1678 70.5439 22.8005 68.2196C23.6148 67.0603 24.2851 66.009 24.7516 65.2476C24.9849 64.867 25.1671 64.559 25.2908 64.3465C25.3527 64.2402 25.3999 64.1579 25.4316 64.1022L25.4674 64.0391L25.4783 64.0197M42.3936 42.1224C42.3936 42.1224 42.3936 42.1224 42.3936 42.1224L42.3945 42.1233L42.3981 42.1272L42.4138 42.1437C42.428 42.1585 42.4495 42.1808 42.478 42.2098C42.535 42.2678 42.6202 42.3529 42.7314 42.4593C42.9537 42.6722 43.2796 42.9704 43.6915 43.3091C44.5165 43.9875 45.6809 44.824 47.0451 45.4653C47.1192 45.5001 47.1734 45.5666 47.1926 45.6462C47.2118 45.7257 47.1939 45.8097 47.1438 45.8744L45.7686 47.6535L48.2078 46.2526C48.2689 46.2174 48.3414 46.2077 48.4096 46.2253L48.3422 46.4865C48.2747 46.7477 48.2748 46.7478 48.2748 46.7478L48.2766 46.7482L48.281 46.7493L48.2972 46.7534C48.3112 46.7569 48.3315 46.7618 48.3573 46.768C48.3654 46.7699 48.374 46.7719 48.3832 46.7741L48.4766 46.7205L48.3422 46.4865L48.4096 46.2253M50.2764 46.9899C50.3907 46.8151 50.4977 46.6402 50.5965 46.4656L50.5977 46.4636L50.5989 46.4614L50.8326 46.5963L50.8345 46.6003L50.9496 46.8394C50.7534 46.9338 50.5147 46.9755 50.2764 46.9899ZM46.5138 45.8072C46.6132 45.8569 46.7138 45.9058 46.8156 45.9536L46.9303 45.7094L46.7169 45.5444L46.5138 45.8072ZM42.2624 42.7564C42.2207 42.831 42.1714 42.9174 42.114 43.015C41.8935 43.3899 41.5543 43.9293 41.0762 44.5938C40.1209 45.9216 38.6113 47.7485 36.3878 49.7587L36.3776 49.7689L36.3317 49.8158C36.291 49.8576 36.2303 49.9204 36.1511 50.0037C35.9927 50.1705 35.7602 50.4194 35.4653 50.7467C34.8754 51.4014 34.0362 52.3695 33.0411 53.6208C31.0507 56.1236 28.4382 59.7575 25.9511 64.2797L25.9504 64.2811L25.7154 64.1501C25.9503 64.2811 25.9504 64.281 25.9504 64.2811L25.947 64.2871L25.9375 64.304L25.9006 64.3692C25.8681 64.4263 25.8199 64.5102 25.7571 64.618C25.6316 64.8337 25.4473 65.1451 25.2117 65.5295C24.7407 66.2982 24.0642 67.3593 23.2421 68.5297C21.6518 70.7937 19.5015 73.4882 17.2271 75.2579M24.8637 77.7688C24.8706 77.75 24.8784 77.729 24.8871 77.7058C24.9296 77.5915 24.9932 77.4236 25.0779 77.2074C25.2473 76.7752 25.5011 76.1502 25.8394 75.3767C26.5161 73.83 27.5315 71.6885 28.8876 69.3076C31.597 64.5506 35.6784 58.816 41.152 54.97C41.1568 54.9666 41.1618 54.9633 41.1668 54.9603L41.3071 55.1907" fill="#D8C6A9"/>
<path d="M57.6025 25.5985L55.1183 27.9759C55.1183 27.9759 54.0714 29.1559 50.0893 26.8569C48.5886 25.9905 47.2988 24.9767 47.231 23.4222L48.3398 20.1133L57.6025 25.5985Z" fill="url(#paint1_linear_134_180)"/>
<path fill-rule="evenodd" clip-rule="evenodd" d="M48.1411 19.5789L58.1919 25.5309L55.3724 28.2291C55.3665 28.2353 55.3592 28.2424 55.3507 28.2504C55.3336 28.2664 55.3112 28.2858 55.2832 28.3071C55.227 28.35 55.1485 28.4007 55.0441 28.4493C54.8341 28.5472 54.5279 28.6327 54.1009 28.637C53.2525 28.6455 51.9305 28.3337 49.9103 27.1673C48.4177 26.3056 46.9502 25.2048 46.8731 23.4378L46.8702 23.3714L48.1411 19.5789ZM48.539 20.6477L47.593 23.4709C47.6837 24.7783 48.7842 25.6893 50.2688 26.5464C52.2306 27.6791 53.4232 27.9268 54.0937 27.9201C54.4262 27.9168 54.6306 27.851 54.7414 27.7994C54.7973 27.7734 54.8317 27.7498 54.8483 27.7372C54.8528 27.7337 54.8561 27.731 54.8581 27.7293L54.8601 27.7271L57.0135 25.6662L48.539 20.6477Z" fill="#D18A6A"/>
<path d="M50.8547 12.6109C48.7685 11.8569 47.2981 11.6574 46.984 12.2015C46.3975 13.2174 50.07 16.4376 55.1864 19.3915C60.3027 22.3454 64.9278 23.9158 65.5143 22.9C65.8081 22.391 65.0351 21.3333 63.5515 20.0321" fill="#F5E8EC"/>
<path fill-rule="evenodd" clip-rule="evenodd" d="M48.3154 11.3847C49.0436 11.4677 49.978 11.7219 51.0373 12.1047L50.6713 13.1173C49.6444 12.7462 48.8005 12.5236 48.1934 12.4544C47.8878 12.4196 47.6745 12.4276 47.5404 12.4564C47.505 12.464 47.48 12.4718 47.463 12.4784C47.4651 12.4923 47.469 12.5105 47.4756 12.5339C47.5072 12.6449 47.5865 12.8099 47.7401 13.0306C48.0456 13.4694 48.5723 14.0261 49.3011 14.665C50.7518 15.9368 52.918 17.4605 55.4551 18.9254C57.9923 20.3902 60.395 21.5042 62.2217 22.1247C63.1394 22.4364 63.8849 22.6142 64.4177 22.6594C64.6856 22.6821 64.8682 22.6682 64.9801 22.6401C65.0037 22.6341 65.0216 22.6283 65.0347 22.6232C65.0325 22.6093 65.0287 22.5909 65.022 22.5674C64.9904 22.4565 64.9111 22.2916 64.7574 22.071C64.4517 21.6323 63.9247 21.0759 63.1961 20.4369L63.906 19.6274C64.6611 20.2896 65.2624 20.9126 65.6407 21.4554C65.8289 21.7255 65.9805 22.0017 66.0576 22.273C66.135 22.5453 66.1521 22.8713 65.9801 23.1692C65.8081 23.467 65.5172 23.6151 65.243 23.6841C64.9697 23.753 64.6548 23.76 64.3267 23.7322C63.6674 23.6763 62.8269 23.4674 61.8755 23.1442C59.964 22.495 57.496 21.3469 54.9168 19.8578C52.3376 18.3687 50.1093 16.8054 48.5913 15.4746C47.8357 14.8122 47.2345 14.1888 46.8565 13.6458C46.6684 13.3756 46.517 13.0993 46.44 12.8282C46.3627 12.5562 46.3454 12.2303 46.5174 11.9325C46.7017 11.6132 47.0213 11.4666 47.3146 11.4037C47.6098 11.3404 47.9534 11.3434 48.3154 11.3847ZM65.0367 22.6589C65.0367 22.6589 65.0367 22.6579 65.0371 22.656C65.037 22.658 65.0368 22.659 65.0367 22.6589ZM65.0644 22.6089C65.0658 22.6076 65.0667 22.6071 65.0667 22.6071C65.0668 22.6071 65.0661 22.6078 65.0644 22.6089ZM47.4608 12.4424C47.4609 12.4424 47.4608 12.4434 47.4604 12.4453C47.4606 12.4433 47.4608 12.4423 47.4608 12.4424ZM47.4332 12.4928C47.4317 12.4941 47.4308 12.4947 47.4307 12.4947C47.4306 12.4946 47.4314 12.494 47.4332 12.4928Z" fill="#F5CBE5"/>
<path d="M67.1563 16.4534L61.0667 22.2838C59.3643 21.6198 57.3209 20.6243 55.1884 19.3931C53.08 18.1758 51.215 16.9119 49.7928 15.7778L52.4194 7.94507L67.1541 16.4521L67.1563 16.4534Z" fill="url(#paint2_linear_134_180)"/>
<path fill-rule="evenodd" clip-rule="evenodd" d="M52.2924 7.60974C52.393 7.57167 52.5054 7.58078 52.5985 7.63456L67.3354 16.1429C67.4331 16.1993 67.4986 16.2984 67.5121 16.4104C67.5256 16.5224 67.4856 16.6342 67.4041 16.7122L61.3144 22.5427C61.2137 22.6391 61.0662 22.6684 60.9363 22.6177C59.2135 21.9457 57.1536 20.9417 55.009 19.7035C52.888 18.4789 51.0077 17.2051 49.5692 16.058C49.4514 15.9641 49.4049 15.8065 49.4528 15.6637L52.0794 7.83103C52.1136 7.72905 52.1918 7.64782 52.2924 7.60974ZM52.6198 8.47467L50.2127 15.6527C51.5924 16.7336 53.3679 17.9282 55.3675 19.0826C57.3995 20.2558 59.3456 21.211 60.9845 21.866L66.5631 16.5248L52.6198 8.47467Z" fill="#D18A6A"/>
<path d="M59.0663 13.4524C63.1352 15.8015 66.7575 17.145 67.1569 16.4532C67.5564 15.7613 64.5817 13.296 60.5129 10.9469C56.444 8.59773 52.8217 7.25423 52.4222 7.94611C52.0228 8.63798 54.9974 11.1032 59.0663 13.4524Z" fill="url(#paint3_linear_134_180)"/>
<path fill-rule="evenodd" clip-rule="evenodd" d="M52.7084 8.15325C52.7083 8.15322 52.7089 8.15277 52.7104 8.15201C52.7091 8.1529 52.7084 8.15328 52.7084 8.15325ZM52.7545 8.13793C52.7614 8.13639 52.7692 8.13483 52.7781 8.13331C52.8709 8.11741 53.0192 8.11728 53.2321 8.14758C53.6543 8.20765 54.2439 8.37407 54.9667 8.64214C56.4068 9.17625 58.3109 10.0896 60.3335 11.2573C62.356 12.425 64.0991 13.6174 65.2816 14.5974C65.8752 15.0893 66.3142 15.5168 66.5773 15.8524C66.7099 16.0216 66.784 16.1501 66.8166 16.2384C66.8197 16.2468 66.8223 16.2544 66.8244 16.2612C66.8175 16.2627 66.8097 16.2643 66.8008 16.2658C66.708 16.2817 66.5597 16.2819 66.3468 16.2516C65.9246 16.1915 65.335 16.0251 64.6122 15.757C63.1721 15.2229 61.2679 14.3096 59.2454 13.1419C57.2229 11.9742 55.4798 10.7818 54.2972 9.80169C53.7037 9.30979 53.2647 8.88232 53.0016 8.54675C52.8689 8.37753 52.7949 8.24901 52.7623 8.16072C52.7592 8.15228 52.7566 8.14471 52.7545 8.13793ZM66.8342 16.3088C66.8342 16.3087 66.8341 16.3079 66.8343 16.3064C66.8343 16.308 66.8343 16.3088 66.8342 16.3088ZM66.8685 16.2471C66.8697 16.2462 66.8705 16.2459 66.8705 16.2459C66.8706 16.2459 66.8699 16.2464 66.8685 16.2471ZM52.7446 8.09271C52.7446 8.0911 52.7446 8.09035 52.7447 8.09038C52.7447 8.09041 52.7448 8.09121 52.7446 8.09271ZM55.216 7.96995C56.7042 8.5219 58.6456 9.45492 60.692 10.6364C62.7383 11.8178 64.517 13.0326 65.7391 14.0454C66.3479 14.55 66.832 15.0154 67.1415 15.41C67.2951 15.6059 67.4196 15.8019 67.4891 15.99C67.557 16.1736 67.5939 16.4129 67.4672 16.6323C67.3406 16.8518 67.1149 16.9394 66.9219 16.9725C66.7242 17.0063 66.4922 16.9964 66.2458 16.9614C65.7493 16.8907 65.1042 16.7041 64.3629 16.4292C62.8747 15.8772 60.9333 14.9442 58.8869 13.7628C56.8406 12.5813 55.0619 11.3665 53.8398 10.3537C53.231 9.84917 52.7469 9.38378 52.4374 8.98912C52.2838 8.79322 52.1592 8.59728 52.0897 8.40915C52.0219 8.22549 51.985 7.98624 52.1116 7.76681C52.2383 7.54738 52.464 7.45974 52.657 7.42667C52.8547 7.39279 53.0866 7.40272 53.3331 7.43778C53.8296 7.50844 54.4747 7.69499 55.216 7.96995Z" fill="#D18A6A"/>
<path d="M7.7684 73.3757C7.71256 73.285 6.44491 71.108 8.09082 67.7961C8.94658 66.0758 16.7617 50.5029 27.8993 33.487C28.146 33.0444 31.2046 27.9242 40.85 27.1275C40.8786 27.1236 43.8291 26.7354 44.8163 24.2807C44.9281 24.0059 45.2427 23.8716 45.5174 23.9834C45.7944 24.0965 45.9278 24.4076 45.8147 24.6845C44.5905 27.7221 41.1262 28.1792 40.9571 28.1986C31.6927 28.9636 28.8612 33.9693 28.8333 34.0175L28.8219 34.0373L28.8105 34.057C17.5094 51.3207 9.39485 67.5895 9.05526 68.274C7.68804 71.0271 8.6526 72.7512 8.68971 72.8136C16.7224 85.8556 31.001 85.7944 31.1452 85.7929L31.1939 85.7946C33.3759 85.9574 34.6657 83.6422 34.6784 83.6203L34.6872 83.6049L34.6961 83.5896C50.5087 58.4055 55.1109 48.2556 55.1544 48.155L55.1683 48.1308C57.716 43.1456 54.3846 36.0006 54.3444 35.9131C54.2906 35.7884 53.041 32.8203 54.9267 29.995C55.0924 29.7485 55.4305 29.6745 55.6733 29.8469C55.9199 30.0126 55.9872 30.347 55.8214 30.5935C54.2663 32.9223 55.2876 35.3841 55.3234 35.4691C55.4716 35.7799 58.9141 43.1529 56.1315 48.6109C55.9341 49.0439 51.2054 59.3167 35.6124 84.1508C35.4648 84.4166 33.9189 87.0637 31.1338 86.8716C30.7728 86.8737 27.2029 86.8603 22.6241 85.2757C21.1196 84.7553 19.4066 84.0236 17.6273 82.9964C14.2464 81.0444 10.6298 78.0262 7.7662 73.3745L7.7684 73.3757Z" fill="url(#paint4_linear_134_180)"/>
<path d="M28.0514 56.4298C28.9881 57.6346 30.1138 58.659 31.4846 59.3246C32.6724 59.9021 34.1239 60.2458 35.4565 60.0352C35.9423 59.9588 36.5037 60.0606 36.7017 60.4879C36.8915 60.8988 36.7351 61.4433 36.3729 61.711C36.0879 61.9209 35.7116 61.9494 35.3584 61.9531C33.6005 61.9679 31.8213 61.5638 30.2974 60.6869C28.7735 59.81 27.4862 58.5841 26.4866 57.1235C26.3542 56.9272 26.2367 56.7101 26.2123 56.4737C26.1447 55.8409 26.9046 55.1885 27.462 55.6215C27.6421 55.7605 27.8843 56.2075 28.0539 56.4254L28.0514 56.4298Z" fill="#BC9077"/>
<path fill-rule="evenodd" clip-rule="evenodd" d="M42.1361 51.0935C42.2512 51.1882 42.2677 51.3582 42.173 51.4733L41.9647 51.3018C42.173 51.4733 42.173 51.4732 42.173 51.4733L42.1717 51.4748L42.1686 51.4785L42.1571 51.4924C42.147 51.5044 42.1322 51.522 42.1129 51.5447C42.0742 51.59 42.0173 51.6559 41.9435 51.739C41.7959 51.9052 41.5806 52.1408 41.3081 52.4197C40.7635 52.9772 39.9883 53.7106 39.0668 54.412C38.9483 54.5023 38.779 54.4793 38.6887 54.3608C38.5985 54.2422 38.6214 54.0729 38.74 53.9827C39.6347 53.3017 40.39 52.5874 40.9221 52.0427C41.1879 51.7706 41.3973 51.5414 41.54 51.3808C41.6113 51.3004 41.6658 51.2373 41.7023 51.1945C41.7206 51.1731 41.7343 51.1568 41.7434 51.146L41.7534 51.1339L41.7558 51.1311C41.7558 51.1311 41.7563 51.1304 41.7564 51.1304C41.851 51.0153 42.021 50.9988 42.1361 51.0935Z" fill="#D6C6AA"/>
<path fill-rule="evenodd" clip-rule="evenodd" d="M37.7559 55.0629C37.8729 55.1552 37.893 55.3248 37.8007 55.4418L37.7976 55.4457L37.7893 55.4561L37.7581 55.4951C37.731 55.5287 37.6919 55.5769 37.6433 55.6357C37.5463 55.7532 37.4109 55.9139 37.2577 56.086C36.9598 56.4207 36.567 56.8307 36.2553 57.0296C36.1297 57.1098 35.9629 57.0729 35.8827 56.9473C35.8026 56.8217 35.8394 56.6549 35.9651 56.5747C36.2045 56.422 36.5511 56.0683 36.8547 55.7272C37.0023 55.5614 37.1332 55.4061 37.2273 55.2921C37.2743 55.2352 37.3119 55.1888 37.3378 55.1567L37.3673 55.1199L37.3747 55.1105L37.3765 55.1082C37.3765 55.1082 37.3765 55.1082 37.3765 55.1082C37.4688 54.9912 37.639 54.9706 37.7559 55.0629Z" fill="#D6C6AA"/>
<path fill-rule="evenodd" clip-rule="evenodd" d="M37.7831 41.6802C37.9024 41.7694 37.9268 41.9384 37.8376 42.0578C37.8376 42.0578 37.8376 42.0578 37.8376 42.0578L37.8368 42.0589L37.8338 42.063L37.8214 42.0797C37.8104 42.0947 37.7939 42.1172 37.7726 42.1467C37.7298 42.2057 37.6674 42.2929 37.5895 42.4046C37.4337 42.6279 37.2161 42.9489 36.9699 43.3379C36.4767 44.1175 35.8729 45.1641 35.4206 46.2436C35.363 46.3811 35.2049 46.4458 35.0675 46.3882C34.9301 46.3306 34.8653 46.1726 34.9229 46.0351C35.3914 44.9169 36.0124 43.842 36.5139 43.0494C36.7651 42.6524 36.9873 42.3247 37.1469 42.0958C37.2268 41.9814 37.291 41.8916 37.3355 41.8302C37.3577 41.7995 37.375 41.7759 37.3869 41.7598L37.4004 41.7414L37.404 41.7366L37.405 41.7353C37.4942 41.6159 37.6637 41.5909 37.7831 41.6802Z" fill="#D6C6AA"/>
<path d="M24.7 48.1533C24.1077 47.8112 23.8269 47.0816 24.0711 46.4153C26.2772 40.3903 29.367 36.8678 29.4983 36.7213C30.0254 36.1276 30.9331 36.0754 31.526 36.599C32.1197 37.1261 32.1732 38.0316 31.6483 38.6266C31.6044 38.6773 28.7722 41.9362 26.7688 47.4023C26.4971 48.1465 25.6706 48.5293 24.9264 48.2576C24.8464 48.229 24.7715 48.1916 24.7013 48.1511L24.7 48.1533Z" fill="url(#paint5_linear_134_180)"/>
<path opacity="0.83" fill-rule="evenodd" clip-rule="evenodd" d="M35.4225 32.4487C35.0074 31.0736 35.0068 31.0737 35.0062 31.0739L35.0051 31.0742L35.0026 31.075L34.9975 31.0766L34.9857 31.0803L34.9568 31.0896C34.9351 31.0968 34.9088 31.1059 34.8782 31.117C34.817 31.1393 34.7384 31.1699 34.6457 31.2105C34.4609 31.2913 34.2171 31.4129 33.9431 31.5877C33.3945 31.9375 32.7145 32.5074 32.1541 33.3948C31.7305 34.0656 31.9309 34.9527 32.6017 35.3763C33.2724 35.7999 34.1596 35.5995 34.5832 34.9288C34.8756 34.4656 35.2226 34.179 35.4878 34.0099C35.6206 33.9252 35.7303 33.8717 35.7973 33.8424C35.8306 33.8278 35.8525 33.8196 35.8603 33.8168C35.8604 33.8167 35.8605 33.8167 35.8605 33.8167C36.6057 33.5784 37.0246 32.7853 36.7976 32.0335C36.5684 31.274 35.7668 30.8443 35.0074 31.0736L35.4225 32.4487ZM35.8388 33.8234C35.8388 33.8234 35.8388 33.8234 35.8388 33.8234L35.8388 33.8234C35.8388 33.8234 35.8388 33.8234 35.8388 33.8234Z" fill="white"/>
<path opacity="0.4" d="M28.6151 35.7283C28.6151 35.7283 28.634 35.7158 28.6425 35.7061C31.9921 31.2015 35.2805 29.5897 39.0886 29.1146C41.0394 28.8719 43.672 28.1072 45.1792 26.7278C47.2954 24.7903 48.7435 22.429 49.2495 19.3688L53.4892 21.8955C52.4163 24.6811 50.8764 27.6066 48.9036 29.7468C47.5499 31.2149 45.4945 32.5 43.9332 32.9647C40.5322 33.9762 37.9004 35.8441 35.122 39.9824C35.1157 39.9934 35.1063 39.9996 35.099 40.0071C35.099 40.0071 17.868 67.7949 11.913 81.1391C10.0382 79.5273 8.21135 77.6096 7.04444 75.5317C13.7818 58.7398 28.6173 35.7296 28.6173 35.7296L28.6151 35.7283Z" fill="url(#paint6_linear_134_180)"/>
<path d="M17.1825 85.0242C17.527 85.2231 17.748 85.3419 17.8063 85.3726C26.1679 89.8345 31.5234 89.5215 33.9714 88.9398C34.8361 88.734 35.5819 88.2022 36.0736 87.4418C50.454 65.1488 57.6806 51.7606 58.8569 48.5578C60.1088 45.1531 60.4041 41.9917 58.21 35.907C56.1812 30.2805 61.5978 26.7001 61.8304 26.5506L61.2481 25.644C61.1831 25.6855 54.8779 29.8322 57.1984 36.2707C59.2936 42.076 59.0424 44.9381 57.8499 48.1841C56.602 51.5767 48.7419 65.8189 35.1735 86.8577C34.8355 87.3822 34.322 87.7498 33.7278 87.8923C31.4283 88.4398 26.3677 88.7183 18.3218 84.4241C18.2174 84.3667 7.59289 78.5954 5.75368 71.9668C5.59907 71.4036 5.64855 70.8062 5.89694 70.2797C8.0346 65.7715 19.1555 42.6995 28.1464 31.2309C28.1919 31.1724 28.2371 31.1195 28.2892 31.0647C29.0207 30.2789 32.9822 26.3411 39.0277 25.973C39.1597 25.9673 42.4678 25.7856 44.7086 23.3028C46.1518 21.7051 46.8049 19.5402 46.6553 16.8708L45.5791 16.931C45.7125 19.3044 45.1513 21.2036 43.9087 22.5806C41.9656 24.7351 38.9992 24.8976 38.9696 24.8981C32.5083 25.2923 28.2836 29.4935 27.5025 30.3297C27.4321 30.406 27.3638 30.4837 27.2987 30.566C18.2377 42.1257 7.07143 65.2915 4.92363 69.8172C4.56486 70.5754 4.48904 71.4414 4.71607 72.2541C6.43127 78.4338 14.8024 83.6442 17.1916 85.0236L17.1825 85.0242Z" fill="url(#paint7_linear_134_180)"/>
<path d="M65.5163 22.9013C65.5163 22.9013 65.4684 24.1345 63.843 25.7996C62.4329 27.2438 58.0108 26.32 52.8944 23.3661C47.7781 20.4122 44.9166 16.9172 45.3127 15.1012C45.6855 13.3915 46.986 12.2029 46.986 12.2029C46.3995 13.2187 50.0721 16.439 55.1884 19.3929C60.3047 22.3468 64.9298 23.9172 65.5163 22.9013Z" fill="#F7EBF4"/>
<path fill-rule="evenodd" clip-rule="evenodd" d="M66.054 22.9223L65.516 22.9014C66.054 22.9223 66.054 22.922 66.054 22.9223L66.0539 22.9252L66.0537 22.9286L66.0533 22.9366L66.0518 22.9582C66.0504 22.975 66.0484 22.9965 66.0452 23.0225C66.0389 23.0746 66.0282 23.1447 66.0099 23.2313C65.9733 23.4046 65.9068 23.6429 65.7859 23.9332C65.5435 24.515 65.0863 25.2964 64.228 26.1757C63.7553 26.6598 63.0747 26.9021 62.311 26.9797C61.5432 27.0576 60.6381 26.9754 59.6434 26.7582C57.6523 26.3233 55.2151 25.3278 52.625 23.8324C50.0288 22.3335 47.9856 20.6869 46.6336 19.1645C45.9582 18.404 45.4434 17.661 45.1223 16.9703C44.8052 16.2881 44.6522 15.6023 44.7865 14.9866M64.6878 23.7488C64.5709 23.7494 64.4508 23.7439 64.3289 23.7336C63.6696 23.6777 62.8291 23.4687 61.8777 23.1456C59.9662 22.4963 57.4982 21.3483 54.919 19.8592C52.3398 18.3701 50.1115 16.8068 48.5935 15.476C47.8379 14.8136 47.2367 14.1902 46.8587 13.6472C46.797 13.5586 46.7392 13.4693 46.6868 13.3798C46.3517 13.8503 45.9976 14.4861 45.8385 15.2159C45.7747 15.5082 45.8308 15.9403 46.0987 16.5165C46.3626 17.0841 46.8086 17.7401 47.4387 18.4496C48.6975 19.8671 50.6432 21.445 53.1634 22.9C55.6896 24.3585 58.0216 25.3019 59.8732 25.7063C60.7998 25.9087 61.5844 25.9712 62.2023 25.9085C62.8242 25.8454 63.2251 25.6616 63.4575 25.4236M46.9858 12.203L46.6226 11.8056C46.8186 11.6265 47.116 11.617 47.323 11.7834C47.5243 11.9452 47.5816 12.2262 47.4625 12.4531C47.4628 12.4656 47.4654 12.4915 47.4778 12.5353C47.5094 12.6463 47.5887 12.8113 47.7423 13.032C48.0478 13.4708 48.5745 14.0275 49.3033 14.6664C50.754 15.9382 52.9202 17.4619 55.4573 18.9267C57.9945 20.3916 60.3972 21.5056 62.2239 22.1261C63.1416 22.4378 63.8871 22.6156 64.4199 22.6607C64.6878 22.6835 64.8704 22.6696 64.9823 22.6414C65.0264 22.6303 65.0502 22.6196 65.0611 22.6136C65.1886 22.412 65.4346 22.3176 65.6654 22.3842C65.9033 22.4529 66.0636 22.675 66.054 22.9223M64.6878 23.7488C64.4744 24.1841 64.1033 24.762 63.4575 25.4236L64.6878 23.7488ZM46.9858 12.203C46.6226 11.8056 46.6227 11.8055 46.6226 11.8056L46.9858 12.203ZM46.6226 11.8056L46.6215 11.8067L46.6226 11.8056ZM46.6215 11.8067L46.6199 11.8082L46.6215 11.8067ZM46.6199 11.8082L46.6152 11.8124L46.6199 11.8082ZM46.6152 11.8124L46.6006 11.8262L46.6152 11.8124ZM46.6006 11.8262C46.5884 11.8377 46.5717 11.8538 46.5509 11.8744L46.6006 11.8262ZM46.5509 11.8744C46.5093 11.9155 46.4513 11.9744 46.3815 12.0499L46.5509 11.8744ZM46.3815 12.0499C46.2421 12.2007 46.0539 12.419 45.8536 12.6943L46.3815 12.0499ZM45.8536 12.6943C45.456 13.2408 44.9942 14.034 44.7865 14.9866L45.8536 12.6943Z" fill="#F4C1DB"/>
<path opacity="0.4" d="M55.0644 18.6748C53.5898 17.8088 52.3344 16.9787 51.297 16.2218C49.2862 18.1441 48.8495 20.8056 48.7958 21.2075C49.8948 22.1111 51.1795 23.002 52.6077 23.8266C52.6253 23.8368 52.6428 23.8469 52.6604 23.857C52.8692 23.0444 53.5676 20.6745 55.0653 18.6783L55.0644 18.6748Z" fill="url(#paint8_linear_134_180)"/>
<defs>
<linearGradient id="paint0_linear_134_180" x1="52.7023" y1="22.3512" x2="22.8847" y2="73.9971" gradientUnits="userSpaceOnUse">
<stop stop-color="#F4E9F0"/>
<stop offset="0.29" stop-color="#EEE7F0"/>
<stop offset="0.66" stop-color="#DEE3F1"/>
<stop offset="1" stop-color="#C9DFF2"/>
</linearGradient>
<linearGradient id="paint1_linear_134_180" x1="56.4207" y1="27.6455" x2="47.0985" y2="22.2633" gradientUnits="userSpaceOnUse">
<stop stop-color="#D18A85"/>
<stop offset="1" stop-color="#DEBAAE"/>
</linearGradient>
<linearGradient id="paint2_linear_134_180" x1="65.0245" y1="20.1458" x2="50.2876" y2="11.6374" gradientUnits="userSpaceOnUse">
<stop stop-color="#D18A6A"/>
<stop offset="1" stop-color="#DEBA99"/>
</linearGradient>
<linearGradient id="paint3_linear_134_180" x1="-43.8887" y1="-47.6588" x2="-44.1081" y2="-47.7854" gradientUnits="userSpaceOnUse">
<stop stop-color="#D18A6A"/>
<stop offset="1" stop-color="#DEBA99"/>
</linearGradient>
<linearGradient id="paint4_linear_134_180" x1="48.558" y1="29.6763" x2="24.5633" y2="71.2366" gradientUnits="userSpaceOnUse">
<stop stop-color="#F7DAED"/>
<stop offset="0.21" stop-color="#F1D9ED"/>
<stop offset="0.48" stop-color="#E1D7ED"/>
<stop offset="0.79" stop-color="#C6D5ED"/>
<stop offset="1" stop-color="#B0D3ED"/>
</linearGradient>
<linearGradient id="paint5_linear_134_180" x1="30.6742" y1="37.289" x2="24.133" y2="48.6186" gradientUnits="userSpaceOnUse">
<stop offset="0.33" stop-color="white"/>
<stop offset="0.39" stop-color="white" stop-opacity="0.98"/>
<stop offset="0.48" stop-color="white" stop-opacity="0.91"/>
<stop offset="0.57" stop-color="white" stop-opacity="0.81"/>
<stop offset="0.67" stop-color="white" stop-opacity="0.66"/>
<stop offset="0.78" stop-color="white" stop-opacity="0.48"/>
<stop offset="0.89" stop-color="white" stop-opacity="0.25"/>
<stop offset="1" stop-color="white" stop-opacity="0"/>
</linearGradient>
<linearGradient id="paint6_linear_134_180" x1="29.1668" y1="49.4359" x2="22.7187" y2="45.713" gradientUnits="userSpaceOnUse">
<stop stop-color="white"/>
<stop offset="0.16" stop-color="white" stop-opacity="0.81"/>
<stop offset="0.47" stop-color="white" stop-opacity="0.47"/>
<stop offset="0.72" stop-color="white" stop-opacity="0.22"/>
<stop offset="0.91" stop-color="white" stop-opacity="0.06"/>
<stop offset="1" stop-color="white" stop-opacity="0"/>
</linearGradient>
<linearGradient id="paint7_linear_134_180" x1="53.363" y1="21.3548" x2="16.4862" y2="85.2277" gradientUnits="userSpaceOnUse">
<stop stop-color="#F5CBE5"/>
<stop offset="0.17" stop-color="#EFCAE5"/>
<stop offset="0.4" stop-color="#DFC8E6"/>
<stop offset="0.65" stop-color="#C4C4E8"/>
<stop offset="0.92" stop-color="#A0BFEB"/>
<stop offset="1" stop-color="#93BEED"/>
</linearGradient>
<linearGradient id="paint8_linear_134_180" x1="47.9896" y1="17.7349" x2="52.2678" y2="20.2049" gradientUnits="userSpaceOnUse">
<stop stop-color="white" stop-opacity="0.01"/>
<stop offset="0.12" stop-color="white" stop-opacity="0.03"/>
<stop offset="0.25" stop-color="white" stop-opacity="0.08"/>
<stop offset="0.38" stop-color="white" stop-opacity="0.17"/>
<stop offset="0.52" stop-color="white" stop-opacity="0.29"/>
<stop offset="0.66" stop-color="white" stop-opacity="0.45"/>
<stop offset="0.8" stop-color="white" stop-opacity="0.64"/>
<stop offset="0.94" stop-color="white" stop-opacity="0.86"/>
<stop offset="1" stop-color="white" stop-opacity="0.95"/>
</linearGradient>
</defs>
</svg>
