<svg xmlns="http://www.w3.org/2000/svg" width="149" height="183" viewBox="0 0 149 183" fill="none">
    <g clip-path="url(#clip0_134_257)">
        <path d="M118.974 50.5428C118.974 50.5428 107.165 58.1351 111.476 70.0798C115.783 82.0287 115.038 87.8569 112.744 94.1003C110.449 100.344 95.7173 127.535 67.2072 171.615C67.2072 171.615 56.1717 177.382 33.9553 165.528C33.9553 165.528 10.1367 152.743 8.39486 138.203C8.39486 138.203 33.246 84.8252 52.9684 59.7606C52.9684 59.7606 61.365 50.0725 74.874 49.2453C74.874 49.2453 89.6998 48.5549 88.8001 32.5557"
              fill="url(#paint0_linear_134_257)"/>
        <path d="M98.6931 89.7923L93.1764 93.4718L71.7293 77.3424L74.6417 69.8309C74.9646 68.1124 82.0979 71.4815 82.0979 71.4815C99.9129 80.1195 98.6906 89.7965 98.6906 89.7965L98.6931 89.7923Z"
              fill="#E9E0D0" stroke="#D8C6A9" stroke-width="1.05523" stroke-linecap="round" stroke-linejoin="round"/>
        <path d="M21.6353 137.266C21.6353 137.266 45.5895 133.923 61.4365 159.079" stroke="#B0D3ED"
              stroke-width="2.10551" stroke-miterlimit="10" stroke-linecap="round"/>
        <path d="M98.6933 89.7922L33.7115 144.559C28.1084 141.433 25.6796 135.008 25.6796 135.008C29.685 130.845 39.1934 123.452 39.1934 123.452C52.2422 114.464 61.4726 94.6917 61.4726 94.6917C69.5831 76.2347 74.6486 69.8291 74.6486 69.8291C74.5378 70.4173 75.2318 71.6131 77.2987 73.7503L75.1139 77.5344L78.4162 75.1735C78.4162 75.1735 82.9314 80.3031 91.9193 85.0575C91.9193 85.0575 98.6003 88.4571 93.1801 82.8737C87.76 77.2903 81.153 74.6542 81.153 74.6542L80.2119 76.9482"
              fill="#E9E0D0"/>
        <path d="M98.6933 89.7922L33.7115 144.559C28.1084 141.433 25.6796 135.008 25.6796 135.008C29.685 130.845 39.1934 123.452 39.1934 123.452C52.2422 114.464 61.4726 94.6917 61.4726 94.6917C69.5831 76.2347 74.6486 69.8291 74.6486 69.8291C74.5378 70.4173 75.2318 71.6131 77.2987 73.7503L75.1139 77.5344L78.4162 75.1735C78.4162 75.1735 82.9314 80.3031 91.9193 85.0575C91.9193 85.0575 98.6003 88.4571 93.1801 82.8737C87.76 77.2903 81.153 74.6542 81.153 74.6542L80.2119 76.9482"
              stroke="#D8C6A9" stroke-width="1.05523" stroke-linecap="round" stroke-linejoin="round"/>
        <path d="M98.6933 89.7923C93.9756 98.132 80.0682 106.595 80.0682 106.595C58.8443 121.508 48.3293 151.145 48.3293 151.145C38.7858 155.24 32.2426 145.736 32.2426 145.736C41.309 138.94 49.5766 124.115 49.5766 124.115C59.3382 106.365 70.0838 95.5904 70.0838 95.5904C78.7319 87.7751 81.807 81.3987 81.807 81.3987C81.807 81.3987 85.625 85.4966 91.0648 88.0537L86.7477 93.6386L93.8257 89.5733C93.8257 89.5733 97.2856 90.4669 98.6958 89.788L98.6933 89.7923Z"
              fill="#E9E0D0" stroke="#D8C6A9" stroke-width="1.05523" stroke-linecap="round" stroke-linejoin="round"/>
        <path d="M111.934 48.7264L107.076 53.3755C107.076 53.3755 105.029 55.683 97.2415 51.1871C94.3068 49.4928 91.7846 47.5103 91.6518 44.4704L93.8203 37.9996L111.934 48.7264Z"
              fill="url(#paint1_linear_134_257)" stroke="#D18A6A" stroke-width="1.40202" stroke-miterlimit="10"/>
        <path d="M98.7386 23.3285C94.6588 21.854 91.7835 21.4639 91.1692 22.5279C90.0223 24.5144 97.2041 30.8117 107.209 36.5882C117.215 42.3648 126.259 45.4357 127.406 43.4493C127.981 42.4539 126.469 40.3855 123.568 37.8409"
              fill="#F5E8EC"/>
        <path d="M98.7386 23.3285C94.6588 21.854 91.7835 21.4639 91.1692 22.5279C90.0223 24.5144 97.2041 30.8117 107.209 36.5882C117.215 42.3648 126.259 45.4357 127.406 43.4493C127.981 42.4539 126.469 40.3855 123.568 37.8409"
              stroke="#F5CBE5" stroke-width="2.10551" stroke-miterlimit="10"/>
        <path d="M130.618 30.8419L118.709 42.2436C115.38 40.9451 111.384 38.9984 107.214 36.5907C103.091 34.2102 99.4435 31.7384 96.6623 29.5207L101.799 14.2034L130.613 30.8394L130.618 30.8419Z"
              fill="url(#paint2_linear_134_257)" stroke="#D18A6A" stroke-width="1.40202" stroke-linejoin="round"/>
        <path d="M114.796 24.9738C122.753 29.5677 129.836 32.1949 130.617 30.8419C131.398 29.4889 125.581 24.668 117.624 20.0741C109.668 15.4802 102.584 12.8529 101.803 14.2059C101.022 15.5589 106.839 20.3798 114.796 24.9738Z"
              fill="url(#paint3_linear_134_257)" stroke="#D18A6A" stroke-width="1.40202" stroke-miterlimit="10"/>
        <path d="M14.4814 142.157C14.3722 141.98 11.8932 137.723 15.1119 131.246C16.7854 127.882 32.0682 97.428 53.8483 64.1526C54.3308 63.2871 60.312 53.2742 79.174 51.7163C79.23 51.7085 84.9997 50.9495 86.9303 46.1491C87.149 45.6118 87.7641 45.349 88.3014 45.5677C88.843 45.7889 89.1039 46.3972 88.8827 46.9388C86.4887 52.8789 79.7142 53.7729 79.3835 53.8108C61.2665 55.3069 55.7294 65.0956 55.6749 65.19L55.6526 65.2286L55.6303 65.2673C33.5303 99.0273 17.662 130.842 16.9979 132.18C14.3243 137.564 16.2105 140.936 16.2831 141.058C31.9914 166.562 59.9139 166.443 60.1959 166.44L60.2912 166.443C64.558 166.761 67.0804 162.234 67.1051 162.191L67.1225 162.161L67.1398 162.131C98.0621 112.882 107.062 93.0335 107.147 92.8366L107.174 92.7894C112.156 83.0406 105.642 69.0681 105.563 68.897C105.458 68.6532 103.014 62.8488 106.702 57.3238C107.026 56.8416 107.687 56.6971 108.162 57.0341C108.644 57.3582 108.776 58.012 108.451 58.4942C105.41 63.0482 107.407 67.8624 107.477 68.0286C107.767 68.6364 114.499 83.0547 109.058 93.7281C108.672 94.575 99.4245 114.664 68.9317 163.228C68.643 163.748 65.62 168.925 60.1736 168.549C59.4676 168.553 52.4864 168.527 43.5323 165.428C40.5904 164.411 37.2404 162.98 33.7609 160.971C27.1494 157.154 20.077 151.251 14.4771 142.155L14.4814 142.157Z"
              fill="url(#paint4_linear_134_257)"/>
        <path d="M54.1446 109.019C55.9763 111.375 58.1777 113.378 60.8585 114.68C63.1812 115.809 66.0196 116.481 68.6256 116.069C69.5757 115.92 70.6735 116.119 71.0606 116.955C71.4319 117.758 71.126 118.823 70.4176 119.346C69.8603 119.757 69.1245 119.812 68.4338 119.82C64.9962 119.849 61.5168 119.058 58.5368 117.344C55.5567 115.629 53.0394 113.232 51.0845 110.375C50.8257 109.991 50.5959 109.567 50.5482 109.105C50.416 107.867 51.902 106.591 52.9921 107.438C53.3442 107.71 53.8178 108.584 54.1495 109.01L54.1446 109.019Z"
              fill="#BC9077"/>
        <path d="M81.3524 98.9902C81.3524 98.9902 78.9175 101.949 75.366 104.653" stroke="#D6C6AA"
              stroke-width="1.05523" stroke-linecap="round" stroke-linejoin="round"/>
        <path d="M72.7937 106.76C72.7937 106.76 70.9799 109.059 69.9021 109.747" stroke="#D6C6AA" stroke-width="1.05523"
              stroke-linecap="round" stroke-linejoin="round"/>
        <path d="M72.8592 80.5976C72.8592 80.5976 69.8691 84.5975 68.0686 88.8952" stroke="#D6C6AA"
              stroke-width="1.05523" stroke-linecap="round" stroke-linejoin="round"/>
        <path d="M55.4015 127.134C55.4015 127.134 50.8367 135.923 46.1745 141.6" stroke="#D6C6AA" stroke-width="1.05523"
              stroke-linecap="round" stroke-linejoin="round"/>
        <path d="M43.5627 146.134C43.5627 146.134 42.3522 148.329 40.6051 149.74" stroke="#D6C6AA"
              stroke-width="1.05523" stroke-linecap="round" stroke-linejoin="round"/>
        <path d="M40.7077 128.548C40.7077 128.548 37.1905 133.748 31.5796 136.521" stroke="#D6C6AA"
              stroke-width="1.05523" stroke-linecap="round" stroke-linejoin="round"/>
        <path d="M47.592 92.8332C46.4336 92.1644 45.8844 90.7376 46.3621 89.4345C50.6761 77.6524 56.7183 70.7638 56.9752 70.4774C58.006 69.3163 59.7811 69.2142 60.9404 70.2382C62.1015 71.269 62.2061 73.0398 61.1796 74.2034C61.0937 74.3025 55.5552 80.6753 51.6376 91.3648C51.1063 92.82 49.4899 93.5686 48.0347 93.0374C47.8783 92.9814 47.7317 92.9082 47.5945 92.8289L47.592 92.8332Z"
              fill="url(#paint5_linear_134_257)"/>
        <path opacity="0.83" d="M68.5612 62.1215C68.5612 62.1215 66.2125 62.8306 64.5447 65.4716" stroke="white"
              stroke-width="5.61799" stroke-miterlimit="10" stroke-linecap="round"/>
        <path d="M50.0562 161.569C49.0651 160.997 48.4901 159.853 48.6927 158.66C48.9533 157.129 50.4087 156.104 51.9333 156.366C59.5085 157.662 63.2786 149.061 63.4382 148.696C64.0473 147.274 65.6922 146.605 67.1164 147.21C68.5473 147.813 69.2104 149.448 68.6141 150.878C66.713 155.409 60.5822 163.551 50.9838 161.905C50.6455 161.847 50.3351 161.73 50.0562 161.569Z"
              fill="url(#paint6_linear_134_257)"/>
        <path opacity="0.4"
              d="M55.2472 68.5359C55.2472 68.5359 55.2842 68.5115 55.3009 68.4925C61.8512 59.6835 68.2818 56.5315 75.7287 55.6024C79.5437 55.1278 84.6918 53.6323 87.6392 50.9349C91.7775 47.1459 94.6094 42.5283 95.5989 36.5439L103.89 41.4851C101.792 46.9324 98.7803 52.6534 94.9223 56.8388C92.2752 59.7096 88.2557 62.2228 85.2025 63.1315C78.5517 65.1094 73.4051 68.7624 67.9719 76.855C67.9596 76.8765 67.9411 76.8887 67.9269 76.9034C67.9269 76.9034 34.2308 131.244 22.5855 157.339C18.9193 154.187 15.3468 150.437 13.0648 146.374C26.2401 113.536 55.2515 68.5384 55.2515 68.5384L55.2472 68.5359Z"
              fill="url(#paint7_linear_134_257)"/>
        <path d="M32.89 164.936C33.5636 165.325 33.9957 165.557 34.1098 165.617C50.4612 174.343 60.9343 173.731 65.7213 172.593C67.4124 172.191 68.8709 171.151 69.8324 169.664C97.9539 126.069 112.086 99.8871 114.386 93.624C116.834 86.9659 117.412 80.7836 113.121 68.8845C109.154 57.8816 119.746 50.8799 120.201 50.5876L119.062 48.8147C118.935 48.8958 106.605 57.005 111.143 69.5959C115.24 80.9484 114.749 86.5455 112.417 92.8932C109.977 99.5275 94.6059 127.379 68.0721 168.522C67.4112 169.547 66.407 170.266 65.245 170.545C60.7483 171.615 50.852 172.16 35.1178 163.762C34.9137 163.65 14.137 152.364 10.5403 139.401C10.238 138.3 10.3347 137.132 10.8204 136.102C15.0008 127.286 36.7482 82.1677 54.3303 59.7402C54.4193 59.6257 54.5076 59.5223 54.6095 59.4152C56.0401 57.8786 63.7869 50.1779 75.6092 49.4581C75.8674 49.447 82.3365 49.0917 86.7185 44.2365C89.5407 41.112 90.818 36.8784 90.5254 31.6582L88.4208 31.776C88.6816 36.4172 87.5842 40.1312 85.1542 42.8241C81.3544 47.0374 75.5535 47.3551 75.4957 47.356C62.8602 48.1269 54.5986 56.3427 53.0711 57.9778C52.9334 58.1271 52.8 58.2789 52.6727 58.44C34.9533 81.0456 13.1172 126.348 8.91709 135.198C8.2155 136.681 8.06724 138.374 8.5112 139.963C11.8654 152.048 28.2355 162.237 32.9078 164.935L32.89 164.936Z"
              fill="url(#paint8_linear_134_257)"/>
        <path d="M127.41 43.4517C127.41 43.4517 127.317 45.8632 124.138 49.1194C121.38 51.9436 112.733 50.1372 102.728 44.3606C92.7223 38.5841 87.1265 31.7494 87.9012 28.198C88.6301 24.8547 91.1734 22.5304 91.1734 22.5304C90.0265 24.5168 97.2083 30.8142 107.214 36.5907C117.219 42.3672 126.263 45.4382 127.41 43.4517Z"
              fill="#F7EBF4" stroke="#F4C1DB" stroke-width="2.10551" stroke-linecap="round" stroke-linejoin="round"/>
        <path opacity="0.4"
              d="M106.972 35.1867C104.088 33.4932 101.633 31.8699 99.6043 30.3898C95.672 34.1489 94.8181 39.3535 94.7132 40.1396C96.8622 41.9066 99.3744 43.6488 102.167 45.2614C102.202 45.2812 102.236 45.301 102.27 45.3209C102.679 43.7318 104.045 39.0972 106.973 35.1935L106.972 35.1867Z"
              fill="url(#paint9_linear_134_257)"/>
    </g>
    <defs>
        <linearGradient id="paint0_linear_134_257" x1="102.351" y1="42.376" x2="44.0412" y2="143.372"
                        gradientUnits="userSpaceOnUse">
            <stop stop-color="#F4E9F0"/>
            <stop offset="0.29" stop-color="#EEE7F0"/>
            <stop offset="0.66" stop-color="#DEE3F1"/>
            <stop offset="1" stop-color="#C9DFF2"/>
        </linearGradient>
        <linearGradient id="paint1_linear_134_257" x1="109.623" y1="52.7293" x2="91.3928" y2="42.2042"
                        gradientUnits="userSpaceOnUse">
            <stop stop-color="#D18A85"/>
            <stop offset="1" stop-color="#DEBAAE"/>
        </linearGradient>
        <linearGradient id="paint2_linear_134_257" x1="126.449" y1="38.0626" x2="97.6299" y2="21.4241"
                        gradientUnits="userSpaceOnUse">
            <stop stop-color="#D18A6A"/>
            <stop offset="1" stop-color="#DEBA99"/>
        </linearGradient>
        <linearGradient id="paint3_linear_134_257" x1="-86.5376" y1="-94.5325" x2="-86.9667" y2="-94.7802"
                        gradientUnits="userSpaceOnUse">
            <stop stop-color="#D18A6A"/>
            <stop offset="1" stop-color="#DEBA99"/>
        </linearGradient>
        <linearGradient id="paint4_linear_134_257" x1="94.2474" y1="56.7005" x2="47.3243" y2="137.974"
                        gradientUnits="userSpaceOnUse">
            <stop stop-color="#F7DAED"/>
            <stop offset="0.21" stop-color="#F1D9ED"/>
            <stop offset="0.48" stop-color="#E1D7ED"/>
            <stop offset="0.79" stop-color="#C6D5ED"/>
            <stop offset="1" stop-color="#B0D3ED"/>
        </linearGradient>
        <linearGradient id="paint5_linear_134_257" x1="59.2746" y1="71.5876" x2="46.4831" y2="93.7432"
                        gradientUnits="userSpaceOnUse">
            <stop offset="0.33" stop-color="white"/>
            <stop offset="0.39" stop-color="white" stop-opacity="0.98"/>
            <stop offset="0.48" stop-color="white" stop-opacity="0.91"/>
            <stop offset="0.57" stop-color="white" stop-opacity="0.81"/>
            <stop offset="0.67" stop-color="white" stop-opacity="0.66"/>
            <stop offset="0.78" stop-color="white" stop-opacity="0.48"/>
            <stop offset="0.89" stop-color="white" stop-opacity="0.25"/>
            <stop offset="1" stop-color="white" stop-opacity="0"/>
        </linearGradient>
        <linearGradient id="paint6_linear_134_257" x1="51.7336" y1="166.72" x2="63.787" y2="145.842"
                        gradientUnits="userSpaceOnUse">
            <stop offset="0.33" stop-color="white"/>
            <stop offset="0.39" stop-color="white" stop-opacity="0.98"/>
            <stop offset="0.48" stop-color="white" stop-opacity="0.91"/>
            <stop offset="0.57" stop-color="white" stop-opacity="0.81"/>
            <stop offset="0.67" stop-color="white" stop-opacity="0.66"/>
            <stop offset="0.78" stop-color="white" stop-opacity="0.48"/>
            <stop offset="0.89" stop-color="white" stop-opacity="0.25"/>
            <stop offset="1" stop-color="white" stop-opacity="0"/>
        </linearGradient>
        <linearGradient id="paint7_linear_134_257" x1="56.3261" y1="95.3417" x2="43.7166" y2="88.0616"
                        gradientUnits="userSpaceOnUse">
            <stop stop-color="white"/>
            <stop offset="0.16" stop-color="white" stop-opacity="0.81"/>
            <stop offset="0.47" stop-color="white" stop-opacity="0.47"/>
            <stop offset="0.72" stop-color="white" stop-opacity="0.22"/>
            <stop offset="0.91" stop-color="white" stop-opacity="0.06"/>
            <stop offset="1" stop-color="white" stop-opacity="0"/>
        </linearGradient>
        <linearGradient id="paint8_linear_134_257" x1="103.643" y1="40.427" x2="31.5277" y2="165.334"
                        gradientUnits="userSpaceOnUse">
            <stop stop-color="#F5CBE5"/>
            <stop offset="0.17" stop-color="#EFCAE5"/>
            <stop offset="0.4" stop-color="#DFC8E6"/>
            <stop offset="0.65" stop-color="#C4C4E8"/>
            <stop offset="0.92" stop-color="#A0BFEB"/>
            <stop offset="1" stop-color="#93BEED"/>
        </linearGradient>
        <linearGradient id="paint9_linear_134_257" x1="93.1365" y1="33.3486" x2="101.503" y2="38.1789"
                        gradientUnits="userSpaceOnUse">
            <stop stop-color="white" stop-opacity="0.01"/>
            <stop offset="0.12" stop-color="white" stop-opacity="0.03"/>
            <stop offset="0.25" stop-color="white" stop-opacity="0.08"/>
            <stop offset="0.38" stop-color="white" stop-opacity="0.17"/>
            <stop offset="0.52" stop-color="white" stop-opacity="0.29"/>
            <stop offset="0.66" stop-color="white" stop-opacity="0.45"/>
            <stop offset="0.8" stop-color="white" stop-opacity="0.64"/>
            <stop offset="0.94" stop-color="white" stop-opacity="0.86"/>
            <stop offset="1" stop-color="white" stop-opacity="0.95"/>
        </linearGradient>
        <clipPath id="clip0_134_257">
            <rect width="74" height="168.525" fill="white" transform="translate(84.2622) rotate(30)"/>
        </clipPath>
    </defs>
</svg>
