<svg xmlns="http://www.w3.org/2000/svg" width="149" height="184" viewBox="0 0 149 184" fill="none">
    <g clip-path="url(#clip0_20_225)">
        <path d="M87.6467 32.1437C87.6467 32.1437 86.9757 46.1721 74.4711 48.4125C61.9641 50.6571 57.2873 54.2178 53.0259 59.3288C48.7645 64.4398 32.5761 90.8039 8.64699 137.553C8.64699 137.553 9.17004 149.999 30.5528 163.317C30.5528 163.317 53.5433 177.558 67.0121 171.794C67.0121 171.794 100.827 123.564 112.677 93.9398C112.677 93.9398 116.87 81.8193 110.83 69.7017C110.83 69.7017 104.012 56.5116 118.323 49.2883"
              fill="url(#paint0_linear_20_225)"/>
        <path d="M31.2038 164.935C30.5257 164.544 30.1082 164.286 29.9948 164.214C8.38945 150.756 7.61517 138.131 7.59172 137.597L7.57942 137.321L7.70532 137.073C30.6099 92.3358 47.5214 64.2831 52.2136 58.6539C56.7574 53.2024 61.8247 49.6096 74.2801 47.3752C85.7972 45.3087 86.5649 32.6295 86.5906 32.0892L88.6963 32.189C88.6895 32.3396 87.8315 47.0784 74.6532 49.4448C62.7725 51.5761 58.1648 54.799 53.8318 59.9945C49.2113 65.5391 32.4786 93.3117 9.71865 137.749C9.9603 139.531 12.1891 150.638 31.1019 162.416C31.3226 162.549 53.4617 176.103 66.3131 170.933C68.9568 167.137 100.437 121.651 111.675 93.5733C111.854 93.0246 115.526 81.501 109.873 70.1684C109.754 69.9391 106.826 64.1568 108.84 57.9317C110.136 53.9238 113.165 50.6995 117.834 48.3419L118.784 50.2241C114.633 52.3197 111.968 55.1307 110.846 58.5806C109.097 63.98 111.723 69.1647 111.751 69.2153C117.929 81.6009 113.837 93.7741 113.657 94.283L113.641 94.3308C101.882 123.728 68.1972 171.912 67.8619 172.394L67.6917 172.639L67.4183 172.756C55.2485 177.965 36.2134 167.816 31.2002 164.922L31.2038 164.935Z"
              fill="url(#paint1_linear_20_225)"/>
        <path d="M99.6085 90.0292L94.0896 93.7102L72.6339 77.5743L75.5474 70.0598C75.8705 68.3406 83.0067 71.711 83.0067 71.711C100.829 80.3525 99.606 90.0335 99.606 90.0335L99.6085 90.0292Z"
              fill="#E9E0D0" stroke="#D8C6A9" stroke-width="1.05566" stroke-linecap="round" stroke-linejoin="round"/>
        <path d="M22.5155 137.52C22.5155 137.52 46.4794 134.175 62.3327 159.341" stroke="#ABC0EF" stroke-width="2.10636"
              stroke-miterlimit="10" stroke-linecap="round"/>
        <path d="M99.6087 90.0292L34.6008 144.818C28.9954 141.69 26.5657 135.263 26.5657 135.263C30.5727 131.098 40.0849 123.702 40.0849 123.702C53.1389 114.711 62.3731 94.9306 62.3731 94.9306C70.4868 76.4662 75.5544 70.058 75.5544 70.058C75.4436 70.6464 76.1378 71.8427 78.2055 73.9808L76.0198 77.7664L79.3235 75.4046C79.3235 75.4046 83.8405 80.5362 92.832 85.2926C92.832 85.2926 99.5157 88.6935 94.0933 83.1079C88.671 77.5222 82.0614 74.885 82.0614 74.885L81.1199 77.1799"
              fill="#E9E0D0"/>
        <path d="M99.6087 90.0292L34.6008 144.818C28.9954 141.69 26.5657 135.263 26.5657 135.263C30.5727 131.098 40.0849 123.702 40.0849 123.702C53.1389 114.711 62.3731 94.9306 62.3731 94.9306C70.4868 76.4662 75.5544 70.058 75.5544 70.058C75.4436 70.6464 76.1378 71.8427 78.2055 73.9808L76.0198 77.7664L79.3235 75.4046C79.3235 75.4046 83.8405 80.5362 92.832 85.2926C92.832 85.2926 99.5157 88.6935 94.0933 83.1079C88.671 77.5222 82.0614 74.885 82.0614 74.885L81.1199 77.1799"
              stroke="#D8C6A9" stroke-width="1.05566" stroke-linecap="round" stroke-linejoin="round"/>
        <path d="M99.6086 90.0291C94.889 98.3722 80.9761 106.838 80.9761 106.838C59.7436 121.758 49.2243 151.406 49.2243 151.406C39.677 155.503 33.1312 145.995 33.1312 145.995C42.2012 139.197 50.4722 124.365 50.4722 124.365C60.2377 106.608 70.9876 95.8295 70.9876 95.8295C79.6392 88.0111 82.7155 81.6321 82.7155 81.6321C82.7155 81.6321 86.5351 85.7316 91.977 88.2898L87.6582 93.877L94.739 89.81C94.739 89.81 98.2003 90.7039 99.6111 90.0248L99.6086 90.0291Z"
              fill="#E9E0D0" stroke="#D8C6A9" stroke-width="1.05566" stroke-linecap="round" stroke-linejoin="round"/>
        <path d="M92.7417 37.3345L91.1438 43.8689C91.1438 43.8689 90.1687 46.7968 97.9589 51.2945C100.895 52.9895 103.874 54.1831 106.574 52.7775L111.095 47.6621L92.7417 37.3345Z"
              fill="url(#paint2_linear_20_225)" stroke="#D18A6A" stroke-width="1.40258" stroke-miterlimit="10"/>
        <path d="M121.346 36.0627C124.665 38.8598 126.441 41.1558 125.826 42.2202C124.679 44.2075 115.631 41.1353 105.621 35.3564C95.6121 29.5776 88.4274 23.2777 89.5748 21.2905C90.1497 20.2947 92.6978 20.5698 96.3536 21.8106"
              fill="#F5E8EC"/>
        <path d="M121.346 36.0627C124.665 38.8598 126.441 41.1558 125.826 42.2202C124.679 44.2075 115.631 41.1353 105.621 35.3564C95.6121 29.5776 88.4274 23.2777 89.5748 21.2905C90.1497 20.2947 92.6978 20.5698 96.3536 21.8106"
              stroke="#EFDCE9" stroke-width="2.10636" stroke-miterlimit="10"/>
        <path d="M98.8953 12.2043L94.9738 28.2248C97.764 30.4595 101.449 32.9478 105.621 35.3565C109.793 37.7651 113.712 39.6612 117.024 40.9614L127.726 28.8495L98.8953 12.2043Z"
              fill="url(#paint3_linear_20_225)" stroke="#D18A6A" stroke-width="1.40258" stroke-linejoin="round"/>
        <path d="M111.893 22.9765C119.853 27.5723 126.94 30.2006 127.721 28.847C128.503 27.4935 122.683 22.6706 114.723 18.0749C106.763 13.4791 99.6768 10.8508 98.8953 12.2043C98.1139 13.5579 103.933 18.3808 111.893 22.9765Z"
              fill="url(#paint4_linear_20_225)" stroke="#D18A6A" stroke-width="1.40258" stroke-miterlimit="10"/>
        <path d="M34.5941 161.204C31.1132 159.194 28.198 157.008 25.8446 154.968C18.681 148.76 15.1664 142.725 14.8169 142.111C11.7646 137.585 14.7398 132.372 15.0457 131.862C41.8657 81.1564 54.6515 63.0945 55.1879 62.334C61.7132 52.2807 77.5722 50.9012 78.2438 50.8482C78.4227 50.8257 83.5926 50.1479 86.0169 45.2352C86.2725 44.7132 86.9048 44.5003 87.4268 44.7559C87.9538 45.0029 88.1618 45.6438 87.9062 46.1658C84.9639 52.1242 78.7128 52.9103 78.449 52.9411C78.2571 52.9562 62.8974 54.3036 56.9476 63.4988L56.9203 63.546C56.7923 63.7182 44.0977 81.4436 16.8971 132.868L16.8798 132.898L16.8624 132.928C16.8376 132.971 14.1769 137.421 16.5869 140.959L16.6376 141.039C16.7717 141.283 30.6392 165.536 60.5929 166.388C60.7373 166.386 64.5993 166.338 67.9265 161.329C68.7539 160.084 88.38 130.422 106.574 94.3884L106.597 94.3498L106.619 94.3112C106.673 94.2168 112.385 84.5232 104.619 68.0788C104.486 67.7733 101.879 61.4551 105.821 56.4115C106.177 55.9532 106.834 55.875 107.299 56.2293C107.755 56.5897 107.838 57.2497 107.482 57.708C104.293 61.7842 106.517 67.1602 106.538 67.2125C114.623 84.3333 108.94 94.5238 108.431 95.3748C90.4969 130.889 71.7571 159.362 69.6794 162.495C65.6808 168.519 60.7525 168.501 60.5417 168.499C49.8552 168.195 41.2083 165.023 34.5941 161.204Z"
              fill="url(#paint5_linear_20_225)"/>
        <path d="M55.038 109.261C56.8704 111.618 59.0727 113.622 61.7546 114.924C64.0782 116.054 66.9177 116.726 69.5248 116.314C70.4753 116.165 71.5735 116.364 71.9608 117.2C72.348 118.036 72.0262 119.069 71.3176 119.593C70.76 120.003 70.0239 120.059 69.3329 120.066C65.8939 120.095 62.4131 119.305 59.4319 117.589C56.4249 115.859 53.9323 113.475 51.9767 110.618C51.7177 110.234 51.4879 109.809 51.4401 109.347C51.3079 108.109 52.7945 106.832 53.885 107.679C54.2372 107.951 54.711 108.826 55.0429 109.252L55.038 109.261Z"
              fill="#BC9077"/>
        <path d="M82.2568 99.2282C82.2568 99.2282 79.8209 102.188 76.268 104.893" stroke="#D6C6AA"
              stroke-width="1.05566" stroke-linecap="round" stroke-linejoin="round"/>
        <path d="M73.6944 107.001C73.6944 107.001 71.8799 109.301 70.8017 109.989" stroke="#D6C6AA"
              stroke-width="1.05566" stroke-linecap="round" stroke-linejoin="round"/>
        <path d="M73.76 80.8281C73.76 80.8281 70.7687 84.8296 68.9674 89.1291" stroke="#D6C6AA" stroke-width="1.05566"
              stroke-linecap="round" stroke-linejoin="round"/>
        <path d="M56.2951 127.384C56.2951 127.384 51.7284 136.176 47.0643 141.855" stroke="#D6C6AA"
              stroke-width="1.05566" stroke-linecap="round" stroke-linejoin="round"/>
        <path d="M44.4519 146.39C44.4519 146.39 43.2409 148.587 41.493 149.999" stroke="#D6C6AA" stroke-width="1.05566"
              stroke-linecap="round" stroke-linejoin="round"/>
        <path d="M41.5953 128.797C41.5953 128.797 38.0767 134 32.4635 136.774" stroke="#D6C6AA" stroke-width="1.05566"
              stroke-linecap="round" stroke-linejoin="round"/>
        <path d="M89.5705 21.288C89.5705 21.288 87.5281 22.5754 86.297 26.9579C85.2294 30.7596 91.12 37.3482 101.129 43.127C111.139 48.9058 119.859 50.3352 122.548 47.8876C125.08 45.5838 125.822 42.2177 125.822 42.2177C124.675 44.205 115.626 41.1328 105.617 35.3539C95.6078 29.5751 88.4231 23.2752 89.5705 21.288Z"
              fill="#EAEFF3"/>
        <path d="M59.3684 72.2217C59.3684 72.2217 53.4743 78.8623 49.2868 90.2882" stroke="white" stroke-width="5.62025"
              stroke-miterlimit="10" stroke-linecap="round"/>
        <path d="M68.8595 61.9978C68.8595 61.9978 66.5098 62.7072 64.8414 65.3493" stroke="white" stroke-width="5.62025"
              stroke-miterlimit="10" stroke-linecap="round"/>
        <path d="M67.5043 150.383C67.5043 150.383 62.871 161.432 52.9321 159.734" stroke="white" stroke-width="5.62025"
              stroke-miterlimit="10" stroke-linecap="round"/>
        <path d="M89.5705 21.288C89.5705 21.288 87.5281 22.5754 86.297 26.9579C85.2294 30.7596 91.12 37.3482 101.129 43.127C111.139 48.9058 119.859 50.3352 122.548 47.8876C125.08 45.5838 125.822 42.2177 125.822 42.2177C124.675 44.205 115.626 41.1328 105.617 35.3539C95.6078 29.5751 88.4231 23.2752 89.5705 21.288Z"
              fill="#F7EBF4" stroke="#EFDCE9" stroke-width="2.10636" stroke-linecap="round" stroke-linejoin="round"/>
    </g>
    <defs>
        <linearGradient id="paint0_linear_20_225" x1="103.037" y1="42.4599" x2="44.7032" y2="143.497"
                        gradientUnits="userSpaceOnUse">
            <stop stop-color="#F4E9F0"/>
            <stop offset="0.23" stop-color="#EEE6F0"/>
            <stop offset="0.54" stop-color="#DEDFF0"/>
            <stop offset="0.87" stop-color="#C3D4F1"/>
            <stop offset="1" stop-color="#B8CFF2"/>
        </linearGradient>
        <linearGradient id="paint1_linear_20_225" x1="102.35" y1="43.6489" x2="33.7872" y2="162.404"
                        gradientUnits="userSpaceOnUse">
            <stop stop-color="#EFDCE9"/>
            <stop offset="0.22" stop-color="#E9D9E9"/>
            <stop offset="0.5" stop-color="#D9D3EA"/>
            <stop offset="0.81" stop-color="#BEC8ED"/>
            <stop offset="1" stop-color="#ABC0EF"/>
        </linearGradient>
        <linearGradient id="paint2_linear_20_225" x1="90.4297" y1="41.3391" x2="108.667" y2="51.8684"
                        gradientUnits="userSpaceOnUse">
            <stop stop-color="#DEBA99"/>
            <stop offset="0.27" stop-color="#DCB493"/>
            <stop offset="0.61" stop-color="#D8A483"/>
            <stop offset="1" stop-color="#D18A6A"/>
        </linearGradient>
        <linearGradient id="paint3_linear_20_225" x1="94.7247" y1="19.428" x2="123.551" y2="36.0707"
                        gradientUnits="userSpaceOnUse">
            <stop stop-color="#DEBA99"/>
            <stop offset="0.27" stop-color="#DCB493"/>
            <stop offset="0.61" stop-color="#D8A483"/>
            <stop offset="1" stop-color="#D18A6A"/>
        </linearGradient>
        <linearGradient id="paint4_linear_20_225" x1="98.8953" y1="12.2043" x2="127.721" y2="28.847"
                        gradientUnits="userSpaceOnUse">
            <stop stop-color="#DEBA99"/>
            <stop offset="0.27" stop-color="#DCB493"/>
            <stop offset="0.61" stop-color="#D8A483"/>
            <stop offset="1" stop-color="#D18A6A"/>
        </linearGradient>
        <linearGradient id="paint5_linear_20_225" x1="94.68" y1="56.6465" x2="47.738" y2="137.952"
                        gradientUnits="userSpaceOnUse">
            <stop stop-color="#EFDCE9"/>
            <stop offset="0.22" stop-color="#E9D9E9"/>
            <stop offset="0.5" stop-color="#D9D3EA"/>
            <stop offset="0.81" stop-color="#BEC8ED"/>
            <stop offset="1" stop-color="#ABC0EF"/>
        </linearGradient>
        <clipPath id="clip0_20_225">
            <rect width="74" height="169.648" fill="white" transform="translate(84.8242) rotate(30)"/>
        </clipPath>
    </defs>
</svg>
