<svg xmlns="http://www.w3.org/2000/svg" width="120" height="120" viewBox="0 0 120 120" fill="none">
    <g clip-path="url(#clip0_509_3184)">
        <path d="M60 120C93.1371 120 120 93.1371 120 60C120 26.8629 93.1371 0 60 0C26.8629 0 0 26.8629 0 60C0 93.1371 26.8629 120 60 120Z"
              fill="url(#paint0_linear_509_3184)"/>
        <path d="M11.2389 77.0195C23.6738 76.2011 40.6327 73.0488 57.7279 63.5616C57.3793 65.9637 57.2657 68.4795 57.4551 71.0786C57.4627 71.2681 57.6976 75.7313 61.5546 79.1867C64.4341 81.7707 68.4958 83.0741 73.641 83.0741C74.3382 83.0741 75.0505 83.0513 75.7855 83.0059C88.2811 82.1951 102.489 78.2926 118.971 71.1165C119.168 70.0708 119.334 69.0175 119.471 67.9566C102.618 75.4434 88.1901 79.5126 75.6112 80.331C70.2083 80.6795 66.1012 79.6338 63.3884 77.2241C60.3649 74.5416 60.1452 70.9953 60.1376 70.9271C59.9103 67.7141 60.1755 64.6528 60.7969 61.8036C65.0252 59.2726 69.2384 56.3325 73.3834 52.9377C74.3003 52.2026 82.3781 45.648 82.5751 40.874C82.6206 39.6768 82.2038 38.6235 81.3627 37.8354C79.9456 36.5017 77.6117 36.5093 74.7928 37.8505C68.9125 40.6467 61.2061 48.967 58.4326 60.091C37.7835 72.1622 16.6645 74.7007 1.80469 74.534C2.03202 75.4661 2.28966 76.383 2.56245 77.2923C5.27526 77.3075 8.18509 77.2393 11.2616 77.0347L11.2389 77.0195ZM75.9295 40.2602C77.0813 39.7146 77.9603 39.51 78.5741 39.51C79.0287 39.51 79.3394 39.6161 79.5061 39.7753C79.7865 40.0329 79.8926 40.3284 79.8774 40.7452C79.7714 43.4201 74.8004 48.3456 71.686 50.8311C68.4503 53.4833 65.1692 55.8551 61.8653 57.9617C65.0404 48.7851 71.6708 42.2835 75.937 40.2527L75.9295 40.2602Z"
              fill="white"/>
    </g>
    <defs>
        <linearGradient id="paint0_linear_509_3184" x1="60" y1="2.35666" x2="60" y2="134.867"
                        gradientUnits="userSpaceOnUse">
            <stop stop-color="#F1D4DC"/>
            <stop offset="0.25" stop-color="#E8CFDB"/>
            <stop offset="0.65" stop-color="#D1C2DA"/>
            <stop offset="1" stop-color="#B9B4D9"/>
        </linearGradient>
        <clipPath id="clip0_509_3184">
            <rect width="120" height="120" fill="white"/>
        </clipPath>
    </defs>
</svg>
