<svg width="29" height="28" viewBox="0 0 29 28" fill="none" xmlns="http://www.w3.org/2000/svg">
    <path d="M25.583 21.0001L17.833 14.0001M11.1663 14.0001L3.41638 21.0001M2.83301 8.16675L12.3587 14.8348C13.1301 15.3747 13.5158 15.6447 13.9353 15.7493C14.3059 15.8416 14.6935 15.8416 15.064 15.7493C15.4836 15.6447 15.8692 15.3747 16.6406 14.8348L26.1663 8.16675M8.43301 23.3334H20.5663C22.5265 23.3334 23.5066 23.3334 24.2553 22.9519C24.9139 22.6164 25.4493 22.081 25.7849 21.4224C26.1663 20.6737 26.1663 19.6936 26.1663 17.7334V10.2667C26.1663 8.30656 26.1663 7.32647 25.7849 6.57778C25.4493 5.91921 24.9139 5.38378 24.2553 5.04823C23.5066 4.66675 22.5265 4.66675 20.5663 4.66675H8.43301C6.47282 4.66675 5.49273 4.66675 4.74404 5.04823C4.08547 5.38378 3.55004 5.91921 3.21448 6.57778C2.83301 7.32647 2.83301 8.30656 2.83301 10.2667V17.7334C2.83301 19.6936 2.83301 20.6737 3.21448 21.4224C3.55004 22.081 4.08547 22.6164 4.74404 22.9519C5.49273 23.3334 6.47282 23.3334 8.43301 23.3334Z"
          stroke="white" stroke-width="2" stroke-linecap="round" stroke-linejoin="round"/>
</svg>
