<svg xmlns="http://www.w3.org/2000/svg" width="40" height="40" viewBox="0 0 40 40" fill="none">
    <path d="M30 3.33325L36.6666 9.99992M3.33331 36.6666L5.46065 28.8664C5.59944 28.3575 5.66883 28.103 5.77537 27.8657C5.86995 27.655 5.98618 27.4548 6.12217 27.2681C6.27534 27.0579 6.46183 26.8714 6.83482 26.4984L24.0572 9.27606C24.3872 8.94605 24.5522 8.78104 24.7425 8.71922C24.9098 8.66483 25.0901 8.66483 25.2575 8.71922C25.4478 8.78104 25.6128 8.94605 25.9428 9.27606L30.7238 14.0571C31.0539 14.3871 31.2189 14.5521 31.2807 14.7424C31.3351 14.9098 31.3351 15.0901 31.2807 15.2574C31.2189 15.4477 31.0539 15.6127 30.7238 15.9427L13.5015 33.1651C13.1285 33.5381 12.942 33.7246 12.7318 33.8777C12.5451 34.0137 12.3449 34.1299 12.1342 34.2245C11.8969 34.3311 11.6424 34.4005 11.1335 34.5392L3.33331 36.6666Z"
          stroke="#9A93C6" stroke-width="3" stroke-linecap="round" stroke-linejoin="round"/>
</svg>
