<svg width="160" height="160" viewBox="0 0 160 160" fill="none" xmlns="http://www.w3.org/2000/svg">
    <g clip-path="url(#clip0_509_3118)">
        <path d="M80 160C124.183 160 160 124.183 160 80C160 35.8172 124.183 0 80 0C35.8172 0 0 35.8172 0 80C0 124.183 35.8172 160 80 160Z"
              fill="url(#paint0_linear_509_3118)"/>
        <path d="M14.9852 102.693C31.5651 101.601 54.1769 97.3984 76.9705 84.7487C76.5058 87.9515 76.3542 91.3059 76.6068 94.7715C76.6169 95.024 76.9301 100.975 82.0728 105.582C85.9122 109.028 91.3277 110.765 98.188 110.765C99.1175 110.765 100.067 110.735 101.047 110.674C117.708 109.593 136.652 104.39 158.628 94.822C158.89 93.4277 159.112 92.0233 159.294 90.6088C136.824 100.591 117.587 106.017 100.815 107.108C93.6111 107.573 88.135 106.178 84.5179 102.965C80.4866 99.3888 80.1936 94.6603 80.1835 94.5694C79.8804 90.2855 80.234 86.2036 81.0625 82.4047C86.7003 79.0301 92.3178 75.1099 97.8445 70.5835C99.067 69.6035 109.837 60.8639 110.1 54.4987C110.161 52.9023 109.605 51.4979 108.484 50.4471C106.594 48.6689 103.482 48.679 99.7238 50.4673C91.8834 54.1956 81.6081 65.2893 77.9102 80.1213C50.378 96.2163 22.2193 99.601 2.40625 99.3787C2.70936 100.621 3.05288 101.844 3.41661 103.056C7.03368 103.077 10.9134 102.986 15.0155 102.713L14.9852 102.693ZM101.239 53.6803C102.775 52.9528 103.947 52.68 104.765 52.68C105.372 52.68 105.786 52.8215 106.008 53.0336C106.382 53.3772 106.523 53.7712 106.503 54.3269C106.362 57.8935 99.7339 64.4608 95.5813 67.7747C91.2671 71.311 86.8922 74.4734 82.4871 77.2822C86.7205 65.0468 95.5611 56.3779 101.249 53.6702L101.239 53.6803Z"
              fill="white"/>
    </g>
    <defs>
        <linearGradient id="paint0_linear_509_3118" x1="80" y1="3.14221" x2="80" y2="179.823"
                        gradientUnits="userSpaceOnUse">
            <stop stop-color="#F1D4DC"/>
            <stop offset="0.25" stop-color="#E8CFDB"/>
            <stop offset="0.65" stop-color="#D1C2DA"/>
            <stop offset="1" stop-color="#B9B4D9"/>
        </linearGradient>
        <clipPath id="clip0_509_3118">
            <rect width="160" height="160" fill="white"/>
        </clipPath>
    </defs>
</svg>
